<svg xmlns="http://www.w3.org/2000/svg" xmlns:xlink="http://www.w3.org/1999/xlink" xmlns:lucid="lucid" width="2120" height="1297.17"><g transform="translate(20 -200)" lucid:page-tab-id="0_0"><path d="M700 985c0-2.76 2.24-5 5-5h353.55c2.76 0 5 2.24 5 5v168c0 2.76-2.24 5-5 5H705c-2.76 0-5-2.24-5-5z" stroke="#000" stroke-width="2" fill="#fff"/><path d="M700 1017.6h363.55M700 1120h363.55" stroke="#000" stroke-width="2" fill="none"/><use xlink:href="#a" transform="matrix(1,0,0,1,708,988) translate(114.57499999999999 14.6)"/><use xlink:href="#b" transform="matrix(1,0,0,1,712,1025.6) translate(0 14.69999999999999)"/><use xlink:href="#c" transform="matrix(1,0,0,1,712,1025.6) translate(60.9 14.69999999999999)"/><use xlink:href="#d" transform="matrix(1,0,0,1,712,1025.6) translate(0 36.29999999999999)"/><use xlink:href="#e" transform="matrix(1,0,0,1,712,1025.6) translate(88.85 36.29999999999999)"/><use xlink:href="#f" transform="matrix(1,0,0,1,712,1025.6) translate(0 57.89999999999999)"/><use xlink:href="#g" transform="matrix(1,0,0,1,712,1025.6) translate(83.9 57.89999999999999)"/><use xlink:href="#h" transform="matrix(1,0,0,1,712,1025.6) translate(0 79.5)"/><use xlink:href="#i" transform="matrix(1,0,0,1,712,1025.6) translate(170.8 79.5)"/><path d="M380 1272.17c0-2.76 2.24-5 5-5h274.52c2.76 0 5 2.24 5 5v124c0 2.76-2.24 5-5 5H385c-2.76 0-5-2.24-5-5z" stroke="#000" stroke-width="2" fill="#fff"/><path d="M380 1304.77h284.52M380 1363.97h284.52" stroke="#000" stroke-width="2" fill="none"/><use xlink:href="#j" transform="matrix(1,0,0,1,388,1275.1672354948805) translate(84.05 14.6)"/><use xlink:href="#k" transform="matrix(1,0,0,1,392,1312.7672354948804) translate(0 14.799999999999999)"/><use xlink:href="#l" transform="matrix(1,0,0,1,392,1312.7672354948804) translate(90.10000000000001 14.799999999999999)"/><use xlink:href="#m" transform="matrix(1,0,0,1,392,1312.7672354948804) translate(0 36.4)"/><use xlink:href="#n" transform="matrix(1,0,0,1,392,1312.7672354948804) translate(85.15 36.4)"/><path d="M711.94 1272.17c0-2.76 2.23-5 5-5h274.5c2.77 0 5 2.24 5 5v168c0 2.76-2.23 5-5 5h-274.5c-2.77 0-5-2.24-5-5z" stroke="#000" stroke-width="2" fill="#fff"/><path d="M711.94 1304.77h284.5m-284.5 102.4h284.5" stroke="#000" stroke-width="2" fill="none"/><use xlink:href="#o" transform="matrix(1,0,0,1,719.9354838709678,1275.1672354948805) translate(101.55 14.6)"/><use xlink:href="#p" transform="matrix(1,0,0,1,723.9354838709678,1312.7672354948804) translate(0 14.69999999999999)"/><use xlink:href="#q" transform="matrix(1,0,0,1,723.9354838709678,1312.7672354948804) translate(75.9 14.69999999999999)"/><use xlink:href="#r" transform="matrix(1,0,0,1,723.9354838709678,1312.7672354948804) translate(0 36.29999999999999)"/><use xlink:href="#s" transform="matrix(1,0,0,1,723.9354838709678,1312.7672354948804) translate(45.95 36.29999999999999)"/><use xlink:href="#t" transform="matrix(1,0,0,1,723.9354838709678,1312.7672354948804) translate(0 57.89999999999999)"/><use xlink:href="#c" transform="matrix(1,0,0,1,723.9354838709678,1312.7672354948804) translate(92.75 57.89999999999999)"/><use xlink:href="#u" transform="matrix(1,0,0,1,723.9354838709678,1312.7672354948804) translate(0 79.5)"/><use xlink:href="#v" transform="matrix(1,0,0,1,723.9354838709678,1312.7672354948804) translate(91.8 79.5)"/><path d="M1075.48 1272.17c0-2.76 2.24-5 5-5H1355c2.76 0 5 2.24 5 5v103c0 2.76-2.24 5-5 5h-274.52c-2.76 0-5-2.24-5-5z" stroke="#000" stroke-width="2" fill="#fff"/><path d="M1075.48 1304.77H1360m-284.52 37.6H1360" stroke="#000" stroke-width="2" fill="none"/><use xlink:href="#w" transform="matrix(1,0,0,1,1083.483870967742,1275.1672354948805) translate(112.025 14.6)"/><use xlink:href="#x" transform="matrix(1,0,0,1,1087.483870967742,1312.7672354948804) translate(0 14.6)"/><use xlink:href="#v" transform="matrix(1,0,0,1,1087.483870967742,1312.7672354948804) translate(102.80000000000001 14.6)"/><path d="M854.2 1265.17V1229c0-2.77 2.23-5 5-5h56.74c2.76 0 5-2.25 5-5v-41.5" stroke="#000" stroke-width="2" fill="none"/><path d="M855.2 1266.17h-2v-1.03h2z"/><path d="M920.94 1162.24l4.63 14.26h-9.27z" stroke="#000" stroke-width="2"/><path d="M1217.74 1265.17v-47.6c0-2.75-2.24-5-5-5h-208.48c-2.76 0-5-2.22-5-5v-30.07" stroke="#000" stroke-width="2" fill="none"/><path d="M1218.74 1266.17h-2v-1.03h2z"/><path d="M999.26 1162.24l4.64 14.26h-9.27z" stroke="#000" stroke-width="2"/><path d="M522.26 1265.17v-47.6c0-2.75 2.24-5 5-5H818.7c2.77 0 5-2.22 5-5v-30.07" stroke="#000" stroke-width="2" fill="none"/><path d="M523.26 1266.17h-2v-1.03h2z"/><path d="M823.7 1162.24l4.64 14.26h-9.27z" stroke="#000" stroke-width="2"/><path d="M779.03 702.52c0-2.76 2.24-5 5-5h274.52c2.76 0 5 2.24 5 5v168c0 2.76-2.24 5-5 5H784.03c-2.76 0-5-2.24-5-5z" stroke="#000" stroke-width="2" fill="#fff"/><path d="M779.03 735.12h284.52m-284.52 59.2h284.52" stroke="#000" stroke-width="2" fill="none"/><use xlink:href="#y" transform="matrix(1,0,0,1,787.0322580645161,705.5186251405672) translate(98.07499999999999 14.6)"/><use xlink:href="#z" transform="matrix(1,0,0,1,791.0322580645161,743.1186251405672) translate(0 14.799999999999999)"/><use xlink:href="#A" transform="matrix(1,0,0,1,791.0322580645161,743.1186251405672) translate(0 36.4)"/><use xlink:href="#B" transform="matrix(1,0,0,1,791.0322580645161,802.3186251405673) translate(0 14.500000000000002)"/><use xlink:href="#C" transform="matrix(1,0,0,1,791.0322580645161,802.3186251405673) translate(0 36.1)"/><use xlink:href="#D" transform="matrix(1,0,0,1,791.0322580645161,802.3186251405673) translate(0 57.7)"/><path d="M921.3 907.27v15.5c0 2.75-2.25 5-5 5h-29.53c-2.76 0-5 2.23-5 5V978" stroke="#000" stroke-width="2" fill="none"/><path d="M921.3 877.93l14.84 14.85-14.85 15.15-14.86-15.15z" stroke="#000" stroke-width="2"/><path d="M882.77 979h-2v-1.03h2z"/><use xlink:href="#E" transform="matrix(1,0,0,1,903.2903225806452,901.3929660660582) translate(0 14.4)"/><use xlink:href="#F" transform="matrix(1,0,0,1,889.7741935483871,958.2) translate(0 14.4)"/><path d="M460 334.04c0-2.76 2.24-5 5-5h370c2.76 0 5 2.24 5 5v254c0 2.76-2.24 5-5 5H465c-2.76 0-5-2.24-5-5z" stroke="#000" stroke-width="2" fill="#fff"/><path d="M460 366.64h380m-380 59.1h380" stroke="#000" stroke-width="2" fill="none"/><use xlink:href="#G" transform="matrix(1,0,0,1,468,337.03725028113445) translate(148.225 14.6)"/><use xlink:href="#h" transform="matrix(1,0,0,1,472,374.63725028113447) translate(0 25.6)"/><use xlink:href="#i" transform="matrix(1,0,0,1,472,374.63725028113447) translate(170.8 25.6)"/><use xlink:href="#H" transform="matrix(1,0,0,1,472,433.7372502811345) translate(0 25.6)"/><use xlink:href="#I" transform="matrix(1,0,0,1,472,433.7372502811345) translate(0 47.2)"/><use xlink:href="#J" transform="matrix(1,0,0,1,472,433.7372502811345) translate(0 68.80000000000001)"/><use xlink:href="#K" transform="matrix(1,0,0,1,472,433.7372502811345) translate(0 90.40000000000002)"/><use xlink:href="#L" transform="matrix(1,0,0,1,472,433.7372502811345) translate(0 112.00000000000001)"/><use xlink:href="#M" transform="matrix(1,0,0,1,472,433.7372502811345) translate(0 133.6)"/><path d="M0 445c0-2.76 2.24-5 5-5h350c2.76 0 5 2.24 5 5v254c0 2.76-2.24 5-5 5H5c-2.76 0-5-2.24-5-5z" stroke="#000" stroke-width="2" fill="#fff"/><path d="M0 477.6h360M0 644.7h360" stroke="#000" stroke-width="2" fill="none"/><use xlink:href="#N" transform="matrix(1,0,0,1,8,448) translate(137.05 14.6)"/><use xlink:href="#O" transform="matrix(1,0,0,1,12,485.6) translate(0 25.6)"/><use xlink:href="#s" transform="matrix(1,0,0,1,12,485.6) translate(115.75 25.6)"/><use xlink:href="#P" transform="matrix(1,0,0,1,12,485.6) translate(0 47.2)"/><use xlink:href="#s" transform="matrix(1,0,0,1,12,485.6) translate(81.85000000000001 47.2)"/><use xlink:href="#Q" transform="matrix(1,0,0,1,12,485.6) translate(0 68.80000000000001)"/><use xlink:href="#s" transform="matrix(1,0,0,1,12,485.6) translate(77.9 68.80000000000001)"/><use xlink:href="#R" transform="matrix(1,0,0,1,12,485.6) translate(0 90.40000000000002)"/><use xlink:href="#c" transform="matrix(1,0,0,1,12,485.6) translate(145.70000000000002 90.40000000000002)"/><use xlink:href="#S" transform="matrix(1,0,0,1,12,485.6) translate(0 112.00000000000001)"/><use xlink:href="#c" transform="matrix(1,0,0,1,12,485.6) translate(129.65 112.00000000000001)"/><use xlink:href="#T" transform="matrix(1,0,0,1,12,485.6) translate(0 133.6)"/><use xlink:href="#v" transform="matrix(1,0,0,1,12,485.6) translate(125.8 133.6)"/><path d="M362 572h43c2.76 0 5-2.24 5-5V466.04c0-2.76 2.24-5 5-5h25.5" stroke="#000" stroke-width="2" fill="none"/><path d="M362.03 573H361v-2h1.03z"/><path d="M455.76 461.04l-14.26 4.63v-9.27z" stroke="#000" stroke-width="2"/><path d="M759.53 786.52H655c-2.76 0-5-2.24-5-5V595.04" stroke="#000" stroke-width="2" fill="none"/><path d="M774.8 786.52l-14.27 4.63v-9.27z" stroke="#000" stroke-width="2"/><path d="M651 595.06h-2v-1.02h2z"/><path d="M1260 225c0-2.76 2.24-5 5-5h350c2.76 0 5 2.24 5 5v189c0 2.76-2.24 5-5 5h-350c-2.76 0-5-2.24-5-5z" stroke="#000" stroke-width="2" fill="#fff"/><path d="M1260 257.6h360m-360 80.7h360" stroke="#000" stroke-width="2" fill="none"/><g><use xlink:href="#U" transform="matrix(1,0,0,1,1268,228) translate(133.125 14.6)"/></g><g><use xlink:href="#V" transform="matrix(1,0,0,1,1272,265.6) translate(0 25.299999999999997)"/><use xlink:href="#W" transform="matrix(1,0,0,1,1272,265.6) translate(144.35000000000002 25.299999999999997)"/><use xlink:href="#X" transform="matrix(1,0,0,1,1272,265.6) translate(0 46.9)"/><use xlink:href="#Y" transform="matrix(1,0,0,1,1272,265.6) translate(177.35 46.9)"/></g><g><use xlink:href="#Z" transform="matrix(1,0,0,1,1272,346.3) translate(0 25.299999999999997)"/><use xlink:href="#W" transform="matrix(1,0,0,1,1272,346.3) translate(168.75 25.299999999999997)"/><use xlink:href="#aa" transform="matrix(1,0,0,1,1272,346.3) translate(0 46.9)"/></g><path d="M842 461.04h203c2.76 0 5-2.24 5-5V324.5c0-2.76 2.24-5 5-5h185.5" stroke="#000" stroke-width="2" fill="none"/><path d="M842.03 462.04H841v-2h1.03z"/><path d="M1255.76 319.5l-14.26 4.64v-9.28z" stroke="#000" stroke-width="2"/><path d="M921.3 695.52V563.26c0-2.76 2.23-5 5-5H1435c2.76 0 5-2.24 5-5V438.5" stroke="#000" stroke-width="2" fill="none"/><path d="M922.3 696.52h-2v-1.03h2z"/><path d="M1440 423.24l4.64 14.26h-9.28z" stroke="#000" stroke-width="2"/><path d="M1680 585c0-2.76 2.24-5 5-5h390c2.76 0 5 2.24 5 5v146c0 2.76-2.24 5-5 5h-390c-2.76 0-5-2.24-5-5z" stroke="#000" stroke-width="2" fill="#fff"/><path d="M1680 617.6h400m-400 59.1h400" stroke="#000" stroke-width="2" fill="none"/><g><use xlink:href="#ab" transform="matrix(1,0,0,1,1688,588) translate(164.9 14.6)"/></g><g><use xlink:href="#ac" transform="matrix(1,0,0,1,1692,625.6) translate(0 25.6)"/><use xlink:href="#ad" transform="matrix(1,0,0,1,1692,625.6) translate(193.45 25.6)"/></g><g><use xlink:href="#ae" transform="matrix(1,0,0,1,1692,684.7) translate(0 25.6)"/></g><path d="M1678 658h-301.23c-2.76 0-5 2.24-5 5v118.52c0 2.76-2.23 5-5 5h-283.72" stroke="#000" stroke-width="2" fill="none"/><path d="M1679 659h-1.03v-2h1.03z"/><path d="M1067.78 786.52l14.27-4.64v9.27z" stroke="#000" stroke-width="2"/><path d="M1880 578V324.5c0-2.76-2.24-5-5-5h-235.5" stroke="#000" stroke-width="2" fill="none"/><path d="M1881 579h-2v-1.03h2z"/><path d="M1624.24 319.5l14.26-4.64v9.28z" stroke="#000" stroke-width="2"/><path d="M1700 865c0-2.76 2.24-5 5-5h350c2.76 0 5 2.24 5 5v189c0 2.76-2.24 5-5 5h-350c-2.76 0-5-2.24-5-5z" stroke="#000" stroke-width="2" fill="#fff"/><path d="M1700 897.6h360m-360 102.3h360" stroke="#000" stroke-width="2" fill="none"/><g><use xlink:href="#af" transform="matrix(1,0,0,1,1708,868) translate(109.94999999999999 14.6)"/></g><g><use xlink:href="#ag" transform="matrix(1,0,0,1,1712,905.6) translate(0 25.5)"/><use xlink:href="#ah" transform="matrix(1,0,0,1,1712,905.6) translate(93.35000000000001 25.5)"/><use xlink:href="#ai" transform="matrix(1,0,0,1,1712,905.6) translate(0 47.1)"/><use xlink:href="#aj" transform="matrix(1,0,0,1,1712,905.6) translate(120.60000000000001 47.1)"/><use xlink:href="#ak" transform="matrix(1,0,0,1,1712,905.6) translate(0 68.7)"/><use xlink:href="#n" transform="matrix(1,0,0,1,1712,905.6) translate(108.50000000000001 68.7)"/></g><path d="M1700 1175.17c0-2.76 2.24-5 5-5h350c2.76 0 5 2.24 5 5v297c0 2.76-2.24 5-5 5h-350c-2.76 0-5-2.24-5-5z" stroke="#000" stroke-width="2" fill="#fff"/><path d="M1700 1207.77h360m-360 210.3h360" stroke="#000" stroke-width="2" fill="none"/><g><use xlink:href="#al" transform="matrix(1,0,0,1,1708,1178.1672354948805) translate(116.44999999999999 14.6)"/></g><g><use xlink:href="#am" transform="matrix(1,0,0,1,1712,1215.7672354948804) translate(0 25.500000000000007)"/><use xlink:href="#W" transform="matrix(1,0,0,1,1712,1215.7672354948804) translate(91.85 25.500000000000007)"/><use xlink:href="#an" transform="matrix(1,0,0,1,1712,1215.7672354948804) translate(0 47.10000000000001)"/><use xlink:href="#W" transform="matrix(1,0,0,1,1712,1215.7672354948804) translate(86.9 47.10000000000001)"/><use xlink:href="#k" transform="matrix(1,0,0,1,1712,1215.7672354948804) translate(0 68.70000000000002)"/><use xlink:href="#l" transform="matrix(1,0,0,1,1712,1215.7672354948804) translate(90.10000000000001 68.70000000000002)"/><use xlink:href="#m" transform="matrix(1,0,0,1,1712,1215.7672354948804) translate(0 90.30000000000003)"/><use xlink:href="#l" transform="matrix(1,0,0,1,1712,1215.7672354948804) translate(85.15 90.30000000000003)"/><use xlink:href="#ao" transform="matrix(1,0,0,1,1712,1215.7672354948804) translate(0 111.90000000000002)"/><use xlink:href="#ap" transform="matrix(1,0,0,1,1712,1215.7672354948804) translate(95.15 111.90000000000002)"/><use xlink:href="#aq" transform="matrix(1,0,0,1,1712,1215.7672354948804) translate(0 133.5)"/><use xlink:href="#c" transform="matrix(1,0,0,1,1712,1215.7672354948804) translate(71.85000000000001 133.5)"/><use xlink:href="#ar" transform="matrix(1,0,0,1,1712,1215.7672354948804) translate(0 155.1)"/><use xlink:href="#as" transform="matrix(1,0,0,1,1712,1215.7672354948804) translate(135.70000000000002 155.1)"/><use xlink:href="#at" transform="matrix(1,0,0,1,1712,1215.7672354948804) translate(0 176.70000000000002)"/><use xlink:href="#au" transform="matrix(1,0,0,1,1712,1215.7672354948804) translate(142.65000000000003 176.70000000000002)"/></g><path d="M1880 1168.17v-89.67" stroke="#000" stroke-width="2" fill="none"/><path d="M1881 1169.17h-2v-1.03h2z"/><path d="M1880 1063.24l4.64 14.26h-9.28z" stroke="#000" stroke-width="2"/><path d="M1880 858V755.5" stroke="#000" stroke-width="2" fill="none"/><path d="M1881 859h-2v-1.03h2z"/><path d="M1880 740.24l4.64 14.26h-9.28z" stroke="#000" stroke-width="2"/><defs><path d="M125-24c46 0 70-25 89-51l25 16C214-24 183 4 123 4 8 4-5-146 60-208c32-50 158-61 191-5 5 7 9 14 11 22l-32 10c-9-28-33-43-69-43-74 0-108 51-108 125 0 46 24 75 72 75" id="av"/><path d="M165-48c-4 18 1 34 23 27l-3 20c-29 8-62 0-52-35h-2C116-14 99 4 63 4 30 4 8-16 8-49c0-68 71-67 138-67 10-26 0-56-31-54-26 1-42 9-47 31l-32-5c8-67 160-71 144 15-5 28-9 54-15 81zM42-50c3 52 80 24 89-6 7-12 7-24 11-38-47 1-103-4-100 44" id="aw"/><path d="M6 0l50-261h32L37 0H6" id="ax"/><path d="M111-194c62-3 86 47 72 106H45c-7 38 6 69 45 68 27-1 43-14 53-32l24 11C152-15 129 4 87 4 38 3 12-23 12-71c0-70 32-119 99-123zm44 81c14-66-71-72-95-28-4 8-8 17-11 28h106" id="ay"/><path d="M67-158c22-48 132-52 116 29L158 0h-32l25-140c3-38-53-32-70-12C52-117 51-52 38 0H6l36-190h30" id="az"/><path d="M133-28C103 26-5 8 13-77c13-62 24-115 90-117 29-1 46 15 56 35l19-102h32L160 0h-30zM45-64c-2 27 10 43 35 43 54-1 69-50 69-103 0-29-15-46-42-46-53-1-58 58-62 106" id="aA"/><path d="M66-151c12-25 30-51 66-40l-6 26C45-176 58-65 38 0H6l36-190h30" id="aB"/><path d="M11 0l48-248h184l-5 28H87l-15 79h140l-5 27H67L50-27h158l-5 27H11" id="aC"/><path d="M89 0H52L20-190h33L74-25l89-165h34" id="aD"/><path d="M51-54c-9 22 5 41 31 30L79-1C43 14 10-4 19-52l22-115H19l5-23h22l19-43h21l-9 43h35l-4 23H73" id="aE"/><g id="a"><use transform="matrix(0.05,0,0,0.05,0,0)" xlink:href="#av"/><use transform="matrix(0.05,0,0,0.05,12.950000000000001,0)" xlink:href="#aw"/><use transform="matrix(0.05,0,0,0.05,22.950000000000003,0)" xlink:href="#ax"/><use transform="matrix(0.05,0,0,0.05,26.900000000000002,0)" xlink:href="#ay"/><use transform="matrix(0.05,0,0,0.05,36.900000000000006,0)" xlink:href="#az"/><use transform="matrix(0.05,0,0,0.05,46.900000000000006,0)" xlink:href="#aA"/><use transform="matrix(0.05,0,0,0.05,56.900000000000006,0)" xlink:href="#aw"/><use transform="matrix(0.05,0,0,0.05,66.9,0)" xlink:href="#aB"/><use transform="matrix(0.05,0,0,0.05,72.85000000000001,0)" xlink:href="#aC"/><use transform="matrix(0.05,0,0,0.05,84.85000000000001,0)" xlink:href="#aD"/><use transform="matrix(0.05,0,0,0.05,93.85000000000001,0)" xlink:href="#ay"/><use transform="matrix(0.05,0,0,0.05,103.85000000000001,0)" xlink:href="#az"/><use transform="matrix(0.05,0,0,0.05,113.85000000000001,0)" xlink:href="#aE"/></g><path d="M16-82v-28h88v28H16" id="aF"/><path d="M117-194c89-4 53 116 60 194h-32v-121c0-31-8-49-39-48C34-167 62-67 57 0H25l-1-190h30c1 10-1 24 2 32 11-22 29-35 61-36" id="aG"/><path d="M141-36C126-15 110 5 73 4 37 3 15-17 15-53c-1-64 63-63 125-63 3-35-9-54-41-54-24 1-41 7-42 31l-33-3c5-37 33-52 76-52 45 0 72 20 72 64v82c-1 20 7 32 28 27v20c-31 9-61-2-59-35zM48-53c0 20 12 33 32 33 41-3 63-29 60-74-43 2-92-5-92 41" id="aH"/><path d="M210-169c-67 3-38 105-44 169h-31v-121c0-29-5-50-35-48C34-165 62-65 56 0H25l-1-190h30c1 10-1 24 2 32 10-44 99-50 107 0 11-21 27-35 58-36 85-2 47 119 55 194h-31v-121c0-29-5-49-35-48" id="aI"/><path d="M100-194c63 0 86 42 84 106H49c0 40 14 67 53 68 26 1 43-12 49-29l28 8c-11 28-37 45-77 45C44 4 14-33 15-96c1-61 26-98 85-98zm52 81c6-60-76-77-97-28-3 7-6 17-6 28h103" id="aJ"/><path d="M33-154v-36h34v36H33zM33 0v-36h34V0H33" id="aK"/><g id="b"><use transform="matrix(0.05,0,0,0.05,0,0)" xlink:href="#aF"/><use transform="matrix(0.05,0,0,0.05,5.95,0)" xlink:href="#aG"/><use transform="matrix(0.05,0,0,0.05,15.949999999999998,0)" xlink:href="#aH"/><use transform="matrix(0.05,0,0,0.05,25.950000000000003,0)" xlink:href="#aI"/><use transform="matrix(0.05,0,0,0.05,40.9,0)" xlink:href="#aJ"/><use transform="matrix(0.05,0,0,0.05,50.9,0)" xlink:href="#aK"/></g><path d="M185-189c-5-48-123-54-124 2 14 75 158 14 163 119 3 78-121 87-175 55-17-10-28-26-33-46l33-7c5 56 141 63 141-1 0-78-155-14-162-118-5-82 145-84 179-34 5 7 8 16 11 25" id="aL"/><path d="M59-47c-2 24 18 29 38 22v24C64 9 27 4 27-40v-127H5v-23h24l9-43h21v43h35v23H59v120" id="aM"/><path d="M114-163C36-179 61-72 57 0H25l-1-190h30c1 12-1 29 2 39 6-27 23-49 58-41v29" id="aN"/><path d="M24-231v-30h32v30H24zM24 0v-190h32V0H24" id="aO"/><path d="M177-190C167-65 218 103 67 71c-23-6-38-20-44-43l32-5c15 47 100 32 89-28v-30C133-14 115 1 83 1 29 1 15-40 15-95c0-56 16-97 71-98 29-1 48 16 59 35 1-10 0-23 2-32h30zM94-22c36 0 50-32 50-73 0-42-14-75-50-75-39 0-46 34-46 75s6 73 46 73" id="aP"/><g id="c"><use transform="matrix(0.05,0,0,0.05,0,0)" xlink:href="#aL"/><use transform="matrix(0.05,0,0,0.05,12,0)" xlink:href="#aM"/><use transform="matrix(0.05,0,0,0.05,17,0)" xlink:href="#aN"/><use transform="matrix(0.05,0,0,0.05,22.95,0)" xlink:href="#aO"/><use transform="matrix(0.05,0,0,0.05,26.899999999999995,0)" xlink:href="#aG"/><use transform="matrix(0.05,0,0,0.05,36.9,0)" xlink:href="#aP"/></g><path d="M135-143c-3-34-86-38-87 0 15 53 115 12 119 90S17 21 10-45l28-5c4 36 97 45 98 0-10-56-113-15-118-90-4-57 82-63 122-42 12 7 21 19 24 35" id="aQ"/><path d="M30-248c118-7 216 8 213 122C240-48 200 0 122 0H30v-248zM63-27c89 8 146-16 146-99s-60-101-146-95v194" id="aR"/><g id="d"><use transform="matrix(0.05,0,0,0.05,0,0)" xlink:href="#aF"/><use transform="matrix(0.05,0,0,0.05,5.95,0)" xlink:href="#aQ"/><use transform="matrix(0.05,0,0,0.05,14.949999999999998,0)" xlink:href="#aM"/><use transform="matrix(0.05,0,0,0.05,19.95,0)" xlink:href="#aH"/><use transform="matrix(0.05,0,0,0.05,29.950000000000003,0)" xlink:href="#aN"/><use transform="matrix(0.05,0,0,0.05,35.9,0)" xlink:href="#aM"/><use transform="matrix(0.05,0,0,0.05,40.9,0)" xlink:href="#aR"/><use transform="matrix(0.05,0,0,0.05,53.85,0)" xlink:href="#aH"/><use transform="matrix(0.05,0,0,0.05,63.85,0)" xlink:href="#aM"/><use transform="matrix(0.05,0,0,0.05,68.85,0)" xlink:href="#aJ"/><use transform="matrix(0.05,0,0,0.05,78.85,0)" xlink:href="#aK"/></g><path d="M30 0v-248h33v221h125V0H30" id="aS"/><path d="M100-194c62-1 85 37 85 99 1 63-27 99-86 99S16-35 15-95c0-66 28-99 85-99zM99-20c44 1 53-31 53-75 0-43-8-75-51-75s-53 32-53 75 10 74 51 75" id="aT"/><path d="M96-169c-40 0-48 33-48 73s9 75 48 75c24 0 41-14 43-38l32 2c-6 37-31 61-74 61-59 0-76-41-82-99-10-93 101-131 147-64 4 7 5 14 7 22l-32 3c-4-21-16-35-41-35" id="aU"/><path d="M24 0v-261h32V0H24" id="aV"/><g id="e"><use transform="matrix(0.05,0,0,0.05,0,0)" xlink:href="#aS"/><use transform="matrix(0.05,0,0,0.05,10,0)" xlink:href="#aT"/><use transform="matrix(0.05,0,0,0.05,20,0)" xlink:href="#aU"/><use transform="matrix(0.05,0,0,0.05,29,0)" xlink:href="#aH"/><use transform="matrix(0.05,0,0,0.05,39,0)" xlink:href="#aV"/><use transform="matrix(0.05,0,0,0.05,42.95,0)" xlink:href="#aR"/><use transform="matrix(0.05,0,0,0.05,55.900000000000006,0)" xlink:href="#aH"/><use transform="matrix(0.05,0,0,0.05,65.9,0)" xlink:href="#aM"/><use transform="matrix(0.05,0,0,0.05,70.9,0)" xlink:href="#aJ"/></g><path d="M85-194c31 0 48 13 60 33l-1-100h32l1 261h-30c-2-10 0-23-3-31C134-8 116 4 85 4 32 4 16-35 15-94c0-66 23-100 70-100zm9 24c-40 0-46 34-46 75 0 40 6 74 45 74 42 0 51-32 51-76 0-42-9-74-50-73" id="aW"/><g id="f"><use transform="matrix(0.05,0,0,0.05,0,0)" xlink:href="#aF"/><use transform="matrix(0.05,0,0,0.05,5.95,0)" xlink:href="#aJ"/><use transform="matrix(0.05,0,0,0.05,15.949999999999998,0)" xlink:href="#aG"/><use transform="matrix(0.05,0,0,0.05,25.950000000000003,0)" xlink:href="#aW"/><use transform="matrix(0.05,0,0,0.05,35.95,0)" xlink:href="#aR"/><use transform="matrix(0.05,0,0,0.05,48.900000000000006,0)" xlink:href="#aH"/><use transform="matrix(0.05,0,0,0.05,58.900000000000006,0)" xlink:href="#aM"/><use transform="matrix(0.05,0,0,0.05,63.900000000000006,0)" xlink:href="#aJ"/><use transform="matrix(0.05,0,0,0.05,73.9,0)" xlink:href="#aK"/></g><path d="M140-251c81 0 123 46 123 126C263-46 219 4 140 4 59 4 17-45 17-125s42-126 123-126zm0 227c63 0 89-41 89-101s-29-99-89-99c-61 0-89 39-89 99S79-25 140-24" id="aX"/><path d="M115-194c55 1 70 41 70 98S169 2 115 4C84 4 66-9 55-30l1 105H24l-1-265h31l2 30c10-21 28-34 59-34zm-8 174c40 0 45-34 45-75s-6-73-45-74c-42 0-51 32-51 76 0 43 10 73 51 73" id="aY"/><path d="M33 0v-38h34V0H33" id="aZ"/><path d="M101-234c-31-9-42 10-38 44h38v23H63V0H32v-167H5v-23h27c-7-52 17-82 69-68v24" id="ba"/><path d="M87 75C49 33 22-17 22-94c0-76 28-126 65-167h31c-38 41-64 92-64 168S80 34 118 75H87" id="bb"/><path d="M33-261c38 41 65 92 65 168S71 34 33 75H2C39 34 66-17 66-93S39-220 2-261h31" id="bc"/><g id="g"><use transform="matrix(0.05,0,0,0.05,0,0)" xlink:href="#aX"/><use transform="matrix(0.05,0,0,0.05,14,0)" xlink:href="#aY"/><use transform="matrix(0.05,0,0,0.05,24,0)" xlink:href="#aM"/><use transform="matrix(0.05,0,0,0.05,29,0)" xlink:href="#aO"/><use transform="matrix(0.05,0,0,0.05,32.95,0)" xlink:href="#aT"/><use transform="matrix(0.05,0,0,0.05,42.95,0)" xlink:href="#aG"/><use transform="matrix(0.05,0,0,0.05,52.95,0)" xlink:href="#aH"/><use transform="matrix(0.05,0,0,0.05,62.95,0)" xlink:href="#aV"/><use transform="matrix(0.05,0,0,0.05,66.9,0)" xlink:href="#aZ"/><use transform="matrix(0.05,0,0,0.05,71.9,0)" xlink:href="#aT"/><use transform="matrix(0.05,0,0,0.05,81.9,0)" xlink:href="#ba"/><use transform="matrix(0.05,0,0,0.05,86.9,0)" xlink:href="#bb"/><use transform="matrix(0.05,0,0,0.05,92.85000000000001,0)" xlink:href="#aS"/><use transform="matrix(0.05,0,0,0.05,102.85000000000001,0)" xlink:href="#aT"/><use transform="matrix(0.05,0,0,0.05,112.85000000000001,0)" xlink:href="#aU"/><use transform="matrix(0.05,0,0,0.05,121.85000000000001,0)" xlink:href="#aH"/><use transform="matrix(0.05,0,0,0.05,131.85000000000002,0)" xlink:href="#aV"/><use transform="matrix(0.05,0,0,0.05,135.8,0)" xlink:href="#aR"/><use transform="matrix(0.05,0,0,0.05,148.75,0)" xlink:href="#aH"/><use transform="matrix(0.05,0,0,0.05,158.75,0)" xlink:href="#aM"/><use transform="matrix(0.05,0,0,0.05,163.75,0)" xlink:href="#aJ"/><use transform="matrix(0.05,0,0,0.05,173.75,0)" xlink:href="#bc"/></g><g id="h"><use transform="matrix(0.05,0,0,0.05,0,0)" xlink:href="#aF"/><use transform="matrix(0.05,0,0,0.05,5.95,0)" xlink:href="#aW"/><use transform="matrix(0.05,0,0,0.05,15.949999999999998,0)" xlink:href="#aJ"/><use transform="matrix(0.05,0,0,0.05,25.950000000000003,0)" xlink:href="#aQ"/><use transform="matrix(0.05,0,0,0.05,34.95,0)" xlink:href="#aM"/><use transform="matrix(0.05,0,0,0.05,39.95,0)" xlink:href="#aO"/><use transform="matrix(0.05,0,0,0.05,43.900000000000006,0)" xlink:href="#aG"/><use transform="matrix(0.05,0,0,0.05,53.900000000000006,0)" xlink:href="#aH"/><use transform="matrix(0.05,0,0,0.05,63.900000000000006,0)" xlink:href="#aM"/><use transform="matrix(0.05,0,0,0.05,68.9,0)" xlink:href="#aO"/><use transform="matrix(0.05,0,0,0.05,72.85000000000001,0)" xlink:href="#aT"/><use transform="matrix(0.05,0,0,0.05,82.85000000000001,0)" xlink:href="#aG"/><use transform="matrix(0.05,0,0,0.05,92.85000000000001,0)" xlink:href="#aS"/><use transform="matrix(0.05,0,0,0.05,102.85000000000001,0)" xlink:href="#aT"/><use transform="matrix(0.05,0,0,0.05,112.85000000000001,0)" xlink:href="#aU"/><use transform="matrix(0.05,0,0,0.05,121.85000000000001,0)" xlink:href="#aH"/><use transform="matrix(0.05,0,0,0.05,131.85000000000002,0)" xlink:href="#aM"/><use transform="matrix(0.05,0,0,0.05,136.85000000000002,0)" xlink:href="#aO"/><use transform="matrix(0.05,0,0,0.05,140.8,0)" xlink:href="#aT"/><use transform="matrix(0.05,0,0,0.05,150.8,0)" xlink:href="#aG"/><use transform="matrix(0.05,0,0,0.05,160.8,0)" xlink:href="#aK"/></g><path d="M30-248c87 1 191-15 191 75 0 78-77 80-158 76V0H30v-248zm33 125c57 0 124 11 124-50 0-59-68-47-124-48v98" id="bd"/><path d="M33 0v-248h34V0H33" id="be"/><g id="i"><use transform="matrix(0.05,0,0,0.05,0,0)" xlink:href="#aX"/><use transform="matrix(0.05,0,0,0.05,14,0)" xlink:href="#aY"/><use transform="matrix(0.05,0,0,0.05,24,0)" xlink:href="#aM"/><use transform="matrix(0.05,0,0,0.05,29,0)" xlink:href="#aO"/><use transform="matrix(0.05,0,0,0.05,32.95,0)" xlink:href="#aT"/><use transform="matrix(0.05,0,0,0.05,42.95,0)" xlink:href="#aG"/><use transform="matrix(0.05,0,0,0.05,52.95,0)" xlink:href="#aH"/><use transform="matrix(0.05,0,0,0.05,62.95,0)" xlink:href="#aV"/><use transform="matrix(0.05,0,0,0.05,66.9,0)" xlink:href="#aZ"/><use transform="matrix(0.05,0,0,0.05,71.9,0)" xlink:href="#aT"/><use transform="matrix(0.05,0,0,0.05,81.9,0)" xlink:href="#ba"/><use transform="matrix(0.05,0,0,0.05,86.9,0)" xlink:href="#bb"/><use transform="matrix(0.05,0,0,0.05,92.85000000000001,0)" xlink:href="#bd"/><use transform="matrix(0.05,0,0,0.05,104.85000000000001,0)" xlink:href="#aV"/><use transform="matrix(0.05,0,0,0.05,108.80000000000001,0)" xlink:href="#aH"/><use transform="matrix(0.05,0,0,0.05,118.80000000000001,0)" xlink:href="#aU"/><use transform="matrix(0.05,0,0,0.05,127.80000000000001,0)" xlink:href="#aJ"/><use transform="matrix(0.05,0,0,0.05,137.8,0)" xlink:href="#be"/><use transform="matrix(0.05,0,0,0.05,142.8,0)" xlink:href="#aW"/><use transform="matrix(0.05,0,0,0.05,152.8,0)" xlink:href="#bc"/></g><path d="M205 0l-28-72H64L36 0H1l101-248h38L239 0h-34zm-38-99l-47-123c-12 45-31 82-46 123h93" id="bf"/><g id="j"><use transform="matrix(0.05,0,0,0.05,0,0)" xlink:href="#bf"/><use transform="matrix(0.05,0,0,0.05,12,0)" xlink:href="#aY"/><use transform="matrix(0.05,0,0,0.05,22,0)" xlink:href="#aY"/><use transform="matrix(0.05,0,0,0.05,32,0)" xlink:href="#aT"/><use transform="matrix(0.05,0,0,0.05,42,0)" xlink:href="#aO"/><use transform="matrix(0.05,0,0,0.05,45.95,0)" xlink:href="#aG"/><use transform="matrix(0.05,0,0,0.05,55.95,0)" xlink:href="#aM"/><use transform="matrix(0.05,0,0,0.05,60.95,0)" xlink:href="#aI"/><use transform="matrix(0.05,0,0,0.05,75.9,0)" xlink:href="#aJ"/><use transform="matrix(0.05,0,0,0.05,85.9,0)" xlink:href="#aG"/><use transform="matrix(0.05,0,0,0.05,95.9,0)" xlink:href="#aM"/></g><path d="M127-220V0H93v-220H8v-28h204v28h-85" id="bg"/><g id="k"><use transform="matrix(0.05,0,0,0.05,0,0)" xlink:href="#aF"/><use transform="matrix(0.05,0,0,0.05,5.95,0)" xlink:href="#aQ"/><use transform="matrix(0.05,0,0,0.05,14.949999999999998,0)" xlink:href="#aM"/><use transform="matrix(0.05,0,0,0.05,19.95,0)" xlink:href="#aH"/><use transform="matrix(0.05,0,0,0.05,29.950000000000003,0)" xlink:href="#aN"/><use transform="matrix(0.05,0,0,0.05,35.9,0)" xlink:href="#aM"/><use transform="matrix(0.05,0,0,0.05,40.9,0)" xlink:href="#bg"/><use transform="matrix(0.05,0,0,0.05,51.2,0)" xlink:href="#aO"/><use transform="matrix(0.05,0,0,0.05,55.150000000000006,0)" xlink:href="#aI"/><use transform="matrix(0.05,0,0,0.05,70.10000000000001,0)" xlink:href="#aJ"/><use transform="matrix(0.05,0,0,0.05,80.10000000000001,0)" xlink:href="#aK"/></g><g id="l"><use transform="matrix(0.05,0,0,0.05,0,0)" xlink:href="#aS"/><use transform="matrix(0.05,0,0,0.05,10,0)" xlink:href="#aT"/><use transform="matrix(0.05,0,0,0.05,20,0)" xlink:href="#aU"/><use transform="matrix(0.05,0,0,0.05,29,0)" xlink:href="#aH"/><use transform="matrix(0.05,0,0,0.05,39,0)" xlink:href="#aV"/><use transform="matrix(0.05,0,0,0.05,42.95,0)" xlink:href="#bg"/><use transform="matrix(0.05,0,0,0.05,53.25,0)" xlink:href="#aO"/><use transform="matrix(0.05,0,0,0.05,57.20000000000002,0)" xlink:href="#aI"/><use transform="matrix(0.05,0,0,0.05,72.15,0)" xlink:href="#aJ"/></g><g id="m"><use transform="matrix(0.05,0,0,0.05,0,0)" xlink:href="#aF"/><use transform="matrix(0.05,0,0,0.05,5.95,0)" xlink:href="#aJ"/><use transform="matrix(0.05,0,0,0.05,15.949999999999998,0)" xlink:href="#aG"/><use transform="matrix(0.05,0,0,0.05,25.950000000000003,0)" xlink:href="#aW"/><use transform="matrix(0.05,0,0,0.05,35.95,0)" xlink:href="#bg"/><use transform="matrix(0.05,0,0,0.05,46.25000000000001,0)" xlink:href="#aO"/><use transform="matrix(0.05,0,0,0.05,50.20000000000001,0)" xlink:href="#aI"/><use transform="matrix(0.05,0,0,0.05,65.15,0)" xlink:href="#aJ"/><use transform="matrix(0.05,0,0,0.05,75.15,0)" xlink:href="#aK"/></g><g id="n"><use transform="matrix(0.05,0,0,0.05,0,0)" xlink:href="#aS"/><use transform="matrix(0.05,0,0,0.05,10,0)" xlink:href="#aT"/><use transform="matrix(0.05,0,0,0.05,20,0)" xlink:href="#aU"/><use transform="matrix(0.05,0,0,0.05,29,0)" xlink:href="#aH"/><use transform="matrix(0.05,0,0,0.05,39,0)" xlink:href="#aV"/><use transform="matrix(0.05,0,0,0.05,42.95,0)" xlink:href="#bg"/><use transform="matrix(0.05,0,0,0.05,53.25,0)" xlink:href="#aO"/><use transform="matrix(0.05,0,0,0.05,57.20000000000002,0)" xlink:href="#aI"/><use transform="matrix(0.05,0,0,0.05,72.15,0)" xlink:href="#aJ"/></g><path d="M160-131c35 5 61 23 61 61C221 17 115-2 30 0v-248c76 3 177-17 177 60 0 33-19 50-47 57zm-97-11c50-1 110 9 110-42 0-47-63-36-110-37v79zm0 115c55-2 124 14 124-45 0-56-70-42-124-44v89" id="bh"/><path d="M106-169C34-169 62-67 57 0H25v-261h32l-1 103c12-21 28-36 61-36 89 0 53 116 60 194h-32v-121c2-32-8-49-39-48" id="bi"/><path d="M179-190L93 31C79 59 56 82 12 73V49c39 6 53-20 64-50L1-190h34L92-34l54-156h33" id="bj"/><g id="o"><use transform="matrix(0.05,0,0,0.05,0,0)" xlink:href="#bh"/><use transform="matrix(0.05,0,0,0.05,12,0)" xlink:href="#aO"/><use transform="matrix(0.05,0,0,0.05,15.949999999999998,0)" xlink:href="#aN"/><use transform="matrix(0.05,0,0,0.05,21.9,0)" xlink:href="#aM"/><use transform="matrix(0.05,0,0,0.05,26.899999999999995,0)" xlink:href="#bi"/><use transform="matrix(0.05,0,0,0.05,36.9,0)" xlink:href="#aW"/><use transform="matrix(0.05,0,0,0.05,46.9,0)" xlink:href="#aH"/><use transform="matrix(0.05,0,0,0.05,56.900000000000006,0)" xlink:href="#bj"/></g><g id="p"><use transform="matrix(0.05,0,0,0.05,0,0)" xlink:href="#aF"/><use transform="matrix(0.05,0,0,0.05,5.95,0)" xlink:href="#aY"/><use transform="matrix(0.05,0,0,0.05,15.949999999999998,0)" xlink:href="#aN"/><use transform="matrix(0.05,0,0,0.05,21.9,0)" xlink:href="#aJ"/><use transform="matrix(0.05,0,0,0.05,31.899999999999995,0)" xlink:href="#aQ"/><use transform="matrix(0.05,0,0,0.05,40.9,0)" xlink:href="#aJ"/><use transform="matrix(0.05,0,0,0.05,50.9,0)" xlink:href="#aG"/><use transform="matrix(0.05,0,0,0.05,60.900000000000006,0)" xlink:href="#aM"/><use transform="matrix(0.05,0,0,0.05,65.9,0)" xlink:href="#aK"/></g><g id="q"><use transform="matrix(0.05,0,0,0.05,0,0)" xlink:href="#aX"/><use transform="matrix(0.05,0,0,0.05,14,0)" xlink:href="#aY"/><use transform="matrix(0.05,0,0,0.05,24,0)" xlink:href="#aM"/><use transform="matrix(0.05,0,0,0.05,29,0)" xlink:href="#aO"/><use transform="matrix(0.05,0,0,0.05,32.95,0)" xlink:href="#aT"/><use transform="matrix(0.05,0,0,0.05,42.95,0)" xlink:href="#aG"/><use transform="matrix(0.05,0,0,0.05,52.95,0)" xlink:href="#aH"/><use transform="matrix(0.05,0,0,0.05,62.95,0)" xlink:href="#aV"/><use transform="matrix(0.05,0,0,0.05,66.9,0)" xlink:href="#aZ"/><use transform="matrix(0.05,0,0,0.05,71.9,0)" xlink:href="#aT"/><use transform="matrix(0.05,0,0,0.05,81.9,0)" xlink:href="#ba"/><use transform="matrix(0.05,0,0,0.05,86.9,0)" xlink:href="#bb"/><use transform="matrix(0.05,0,0,0.05,92.85000000000001,0)" xlink:href="#aL"/><use transform="matrix(0.05,0,0,0.05,104.85000000000001,0)" xlink:href="#aM"/><use transform="matrix(0.05,0,0,0.05,109.85000000000001,0)" xlink:href="#aN"/><use transform="matrix(0.05,0,0,0.05,115.80000000000001,0)" xlink:href="#aO"/><use transform="matrix(0.05,0,0,0.05,119.75,0)" xlink:href="#aG"/><use transform="matrix(0.05,0,0,0.05,129.75,0)" xlink:href="#aP"/><use transform="matrix(0.05,0,0,0.05,139.75,0)" xlink:href="#bc"/></g><g id="r"><use transform="matrix(0.05,0,0,0.05,0,0)" xlink:href="#aF"/><use transform="matrix(0.05,0,0,0.05,5.95,0)" xlink:href="#aH"/><use transform="matrix(0.05,0,0,0.05,15.949999999999998,0)" xlink:href="#aP"/><use transform="matrix(0.05,0,0,0.05,25.950000000000003,0)" xlink:href="#aJ"/><use transform="matrix(0.05,0,0,0.05,35.95,0)" xlink:href="#aK"/></g><g id="s"><use transform="matrix(0.05,0,0,0.05,0,0)" xlink:href="#aO"/><use transform="matrix(0.05,0,0,0.05,3.95,0)" xlink:href="#aG"/><use transform="matrix(0.05,0,0,0.05,13.949999999999998,0)" xlink:href="#aM"/></g><path d="M190 0L58-211 59 0H30v-248h39L202-35l-2-213h31V0h-41" id="bk"/><g id="t"><use transform="matrix(0.05,0,0,0.05,0,0)" xlink:href="#aF"/><use transform="matrix(0.05,0,0,0.05,5.95,0)" xlink:href="#ba"/><use transform="matrix(0.05,0,0,0.05,10.95,0)" xlink:href="#aO"/><use transform="matrix(0.05,0,0,0.05,14.899999999999999,0)" xlink:href="#aN"/><use transform="matrix(0.05,0,0,0.05,20.849999999999998,0)" xlink:href="#aQ"/><use transform="matrix(0.05,0,0,0.05,29.849999999999994,0)" xlink:href="#aM"/><use transform="matrix(0.05,0,0,0.05,34.849999999999994,0)" xlink:href="#bk"/><use transform="matrix(0.05,0,0,0.05,47.8,0)" xlink:href="#aH"/><use transform="matrix(0.05,0,0,0.05,57.79999999999999,0)" xlink:href="#aI"/><use transform="matrix(0.05,0,0,0.05,72.75,0)" xlink:href="#aJ"/><use transform="matrix(0.05,0,0,0.05,82.75,0)" xlink:href="#aK"/></g><g id="u"><use transform="matrix(0.05,0,0,0.05,0,0)" xlink:href="#aF"/><use transform="matrix(0.05,0,0,0.05,5.95,0)" xlink:href="#aV"/><use transform="matrix(0.05,0,0,0.05,9.9,0)" xlink:href="#aH"/><use transform="matrix(0.05,0,0,0.05,19.9,0)" xlink:href="#aQ"/><use transform="matrix(0.05,0,0,0.05,28.899999999999995,0)" xlink:href="#aM"/><use transform="matrix(0.05,0,0,0.05,33.9,0)" xlink:href="#bk"/><use transform="matrix(0.05,0,0,0.05,46.85,0)" xlink:href="#aH"/><use transform="matrix(0.05,0,0,0.05,56.85,0)" xlink:href="#aI"/><use transform="matrix(0.05,0,0,0.05,71.8,0)" xlink:href="#aJ"/><use transform="matrix(0.05,0,0,0.05,81.8,0)" xlink:href="#aK"/></g><g id="v"><use transform="matrix(0.05,0,0,0.05,0,0)" xlink:href="#aL"/><use transform="matrix(0.05,0,0,0.05,12,0)" xlink:href="#aM"/><use transform="matrix(0.05,0,0,0.05,17,0)" xlink:href="#aN"/><use transform="matrix(0.05,0,0,0.05,22.95,0)" xlink:href="#aO"/><use transform="matrix(0.05,0,0,0.05,26.899999999999995,0)" xlink:href="#aG"/><use transform="matrix(0.05,0,0,0.05,36.9,0)" xlink:href="#aP"/></g><g id="w"><use transform="matrix(0.05,0,0,0.05,0,0)" xlink:href="#aX"/><use transform="matrix(0.05,0,0,0.05,14,0)" xlink:href="#aM"/><use transform="matrix(0.05,0,0,0.05,19,0)" xlink:href="#bi"/><use transform="matrix(0.05,0,0,0.05,29,0)" xlink:href="#aJ"/><use transform="matrix(0.05,0,0,0.05,39,0)" xlink:href="#aN"/></g><g id="x"><use transform="matrix(0.05,0,0,0.05,0,0)" xlink:href="#aF"/><use transform="matrix(0.05,0,0,0.05,5.95,0)" xlink:href="#aW"/><use transform="matrix(0.05,0,0,0.05,15.949999999999998,0)" xlink:href="#aJ"/><use transform="matrix(0.05,0,0,0.05,25.950000000000003,0)" xlink:href="#aQ"/><use transform="matrix(0.05,0,0,0.05,34.95,0)" xlink:href="#aU"/><use transform="matrix(0.05,0,0,0.05,43.95,0)" xlink:href="#aN"/><use transform="matrix(0.05,0,0,0.05,49.900000000000006,0)" xlink:href="#aO"/><use transform="matrix(0.05,0,0,0.05,53.85,0)" xlink:href="#aY"/><use transform="matrix(0.05,0,0,0.05,63.85,0)" xlink:href="#aM"/><use transform="matrix(0.05,0,0,0.05,68.85000000000001,0)" xlink:href="#aO"/><use transform="matrix(0.05,0,0,0.05,72.80000000000001,0)" xlink:href="#aT"/><use transform="matrix(0.05,0,0,0.05,82.80000000000001,0)" xlink:href="#aG"/><use transform="matrix(0.05,0,0,0.05,92.80000000000001,0)" xlink:href="#aK"/></g><path d="M212-179c-10-28-35-45-73-45-59 0-87 40-87 99 0 60 29 101 89 101 43 0 62-24 78-52l27 14C228-24 195 4 139 4 59 4 22-46 18-125c-6-104 99-153 187-111 19 9 31 26 39 46" id="bl"/><g id="y"><use transform="matrix(0.05,0,0,0.05,0,0)" xlink:href="#bl"/><use transform="matrix(0.05,0,0,0.05,12.950000000000001,0)" xlink:href="#aH"/><use transform="matrix(0.05,0,0,0.05,22.950000000000003,0)" xlink:href="#aV"/><use transform="matrix(0.05,0,0,0.05,26.900000000000002,0)" xlink:href="#aJ"/><use transform="matrix(0.05,0,0,0.05,36.900000000000006,0)" xlink:href="#aG"/><use transform="matrix(0.05,0,0,0.05,46.900000000000006,0)" xlink:href="#aW"/><use transform="matrix(0.05,0,0,0.05,56.900000000000006,0)" xlink:href="#aH"/><use transform="matrix(0.05,0,0,0.05,66.9,0)" xlink:href="#aN"/></g><path d="M118-107v75H92v-75H18v-26h74v-75h26v75h74v26h-74" id="bm"/><path d="M30 0v-248h187v28H63v79h144v27H63v87h162V0H30" id="bn"/><path d="M108 0H70L1-190h34L89-25l56-165h34" id="bo"/><g id="z"><use transform="matrix(0.05,0,0,0.05,0,0)" xlink:href="#bm"/><use transform="matrix(0.05,0,0,0.05,10.5,0)" xlink:href="#aH"/><use transform="matrix(0.05,0,0,0.05,20.5,0)" xlink:href="#aV"/><use transform="matrix(0.05,0,0,0.05,24.45,0)" xlink:href="#aV"/><use transform="matrix(0.05,0,0,0.05,28.399999999999995,0)" xlink:href="#bn"/><use transform="matrix(0.05,0,0,0.05,40.4,0)" xlink:href="#bo"/><use transform="matrix(0.05,0,0,0.05,49.4,0)" xlink:href="#aJ"/><use transform="matrix(0.05,0,0,0.05,59.400000000000006,0)" xlink:href="#aG"/><use transform="matrix(0.05,0,0,0.05,69.4,0)" xlink:href="#aM"/><use transform="matrix(0.05,0,0,0.05,74.4,0)" xlink:href="#aQ"/><use transform="matrix(0.05,0,0,0.05,83.4,0)" xlink:href="#aK"/></g><path d="M18-100v-36l175-74v27L42-118l151 64v27" id="bp"/><path d="M18-27v-27l151-64-151-65v-27l175 74v36" id="bq"/><g id="A"><use transform="matrix(0.05,0,0,0.05,0,0)" xlink:href="#aS"/><use transform="matrix(0.05,0,0,0.05,10,0)" xlink:href="#aO"/><use transform="matrix(0.05,0,0,0.05,13.949999999999998,0)" xlink:href="#aQ"/><use transform="matrix(0.05,0,0,0.05,22.95,0)" xlink:href="#aM"/><use transform="matrix(0.05,0,0,0.05,27.950000000000003,0)" xlink:href="#bp"/><use transform="matrix(0.05,0,0,0.05,38.45,0)" xlink:href="#bl"/><use transform="matrix(0.05,0,0,0.05,51.400000000000006,0)" xlink:href="#aH"/><use transform="matrix(0.05,0,0,0.05,61.400000000000006,0)" xlink:href="#aV"/><use transform="matrix(0.05,0,0,0.05,65.35000000000001,0)" xlink:href="#aJ"/><use transform="matrix(0.05,0,0,0.05,75.35000000000001,0)" xlink:href="#aG"/><use transform="matrix(0.05,0,0,0.05,85.35000000000001,0)" xlink:href="#aW"/><use transform="matrix(0.05,0,0,0.05,95.35000000000001,0)" xlink:href="#aH"/><use transform="matrix(0.05,0,0,0.05,105.35000000000001,0)" xlink:href="#aN"/><use transform="matrix(0.05,0,0,0.05,111.30000000000001,0)" xlink:href="#bn"/><use transform="matrix(0.05,0,0,0.05,123.30000000000001,0)" xlink:href="#bo"/><use transform="matrix(0.05,0,0,0.05,132.3,0)" xlink:href="#aJ"/><use transform="matrix(0.05,0,0,0.05,142.3,0)" xlink:href="#aG"/><use transform="matrix(0.05,0,0,0.05,152.3,0)" xlink:href="#aM"/><use transform="matrix(0.05,0,0,0.05,157.3,0)" xlink:href="#bq"/></g><g id="B"><use transform="matrix(0.05,0,0,0.05,0,0)" xlink:href="#bm"/><use transform="matrix(0.05,0,0,0.05,10.5,0)" xlink:href="#aH"/><use transform="matrix(0.05,0,0,0.05,20.5,0)" xlink:href="#aW"/><use transform="matrix(0.05,0,0,0.05,30.5,0)" xlink:href="#aW"/><use transform="matrix(0.05,0,0,0.05,40.5,0)" xlink:href="#bn"/><use transform="matrix(0.05,0,0,0.05,52.5,0)" xlink:href="#bo"/><use transform="matrix(0.05,0,0,0.05,61.5,0)" xlink:href="#aJ"/><use transform="matrix(0.05,0,0,0.05,71.5,0)" xlink:href="#aG"/><use transform="matrix(0.05,0,0,0.05,81.5,0)" xlink:href="#aM"/><use transform="matrix(0.05,0,0,0.05,86.5,0)" xlink:href="#bb"/><use transform="matrix(0.05,0,0,0.05,92.45,0)" xlink:href="#bc"/></g><g id="C"><use transform="matrix(0.05,0,0,0.05,0,0)" xlink:href="#bm"/><use transform="matrix(0.05,0,0,0.05,10.5,0)" xlink:href="#aW"/><use transform="matrix(0.05,0,0,0.05,20.5,0)" xlink:href="#aJ"/><use transform="matrix(0.05,0,0,0.05,30.5,0)" xlink:href="#aV"/><use transform="matrix(0.05,0,0,0.05,34.45,0)" xlink:href="#aJ"/><use transform="matrix(0.05,0,0,0.05,44.45,0)" xlink:href="#aM"/><use transform="matrix(0.05,0,0,0.05,49.45,0)" xlink:href="#aJ"/><use transform="matrix(0.05,0,0,0.05,59.45,0)" xlink:href="#bn"/><use transform="matrix(0.05,0,0,0.05,71.45,0)" xlink:href="#bo"/><use transform="matrix(0.05,0,0,0.05,80.45,0)" xlink:href="#aJ"/><use transform="matrix(0.05,0,0,0.05,90.45,0)" xlink:href="#aG"/><use transform="matrix(0.05,0,0,0.05,100.45,0)" xlink:href="#aM"/><use transform="matrix(0.05,0,0,0.05,105.45,0)" xlink:href="#bb"/><use transform="matrix(0.05,0,0,0.05,111.4,0)" xlink:href="#bc"/></g><path d="M63-220v92h138v28H63V0H30v-248h175v28H63" id="br"/><path d="M266 0h-40l-56-210L115 0H75L2-248h35L96-30l15-64 43-154h32l59 218 59-218h35" id="bs"/><path d="M143 0L79-87 56-68V0H24v-261h32v163l83-92h37l-77 82L181 0h-38" id="bt"/><g id="D"><use transform="matrix(0.05,0,0,0.05,0,0)" xlink:href="#bm"/><use transform="matrix(0.05,0,0,0.05,10.5,0)" xlink:href="#aP"/><use transform="matrix(0.05,0,0,0.05,20.5,0)" xlink:href="#aJ"/><use transform="matrix(0.05,0,0,0.05,30.5,0)" xlink:href="#aM"/><use transform="matrix(0.05,0,0,0.05,35.5,0)" xlink:href="#bn"/><use transform="matrix(0.05,0,0,0.05,47.5,0)" xlink:href="#bo"/><use transform="matrix(0.05,0,0,0.05,56.5,0)" xlink:href="#aJ"/><use transform="matrix(0.05,0,0,0.05,66.5,0)" xlink:href="#aG"/><use transform="matrix(0.05,0,0,0.05,76.5,0)" xlink:href="#aM"/><use transform="matrix(0.05,0,0,0.05,81.5,0)" xlink:href="#aQ"/><use transform="matrix(0.05,0,0,0.05,90.5,0)" xlink:href="#br"/><use transform="matrix(0.05,0,0,0.05,101.45,0)" xlink:href="#aT"/><use transform="matrix(0.05,0,0,0.05,111.45,0)" xlink:href="#aN"/><use transform="matrix(0.05,0,0,0.05,117.4,0)" xlink:href="#bs"/><use transform="matrix(0.05,0,0,0.05,134,0)" xlink:href="#aJ"/><use transform="matrix(0.05,0,0,0.05,144,0)" xlink:href="#aJ"/><use transform="matrix(0.05,0,0,0.05,154,0)" xlink:href="#bt"/><use transform="matrix(0.05,0,0,0.05,163,0)" xlink:href="#bb"/><use transform="matrix(0.05,0,0,0.05,168.95,0)" xlink:href="#bc"/></g><path d="M27 0v-27h64v-190l-56 39v-29l58-41h29v221h61V0H27" id="bu"/><use transform="matrix(0.05,0,0,0.05,0,0)" xlink:href="#bu" id="E"/><path d="M101-251c68 0 85 55 85 127S166 4 100 4C33 4 14-52 14-124c0-73 17-127 87-127zm-1 229c47 0 54-49 54-102s-4-102-53-102c-51 0-55 48-55 102 0 53 5 102 54 102" id="bv"/><path d="M80-196l47-18 7 23-49 13 32 44-20 13-27-46-27 45-21-12 33-44-49-13 8-23 47 19-2-53h23" id="bw"/><g id="F"><use transform="matrix(0.05,0,0,0.05,0,0)" xlink:href="#bv"/><use transform="matrix(0.05,0,0,0.05,10,0)" xlink:href="#aZ"/><use transform="matrix(0.05,0,0,0.05,15,0)" xlink:href="#aZ"/><use transform="matrix(0.05,0,0,0.05,20,0)" xlink:href="#bw"/></g><g id="G"><use transform="matrix(0.05,0,0,0.05,0,0)" xlink:href="#bs"/><use transform="matrix(0.05,0,0,0.05,16.599999999999998,0)" xlink:href="#aJ"/><use transform="matrix(0.05,0,0,0.05,26.599999999999994,0)" xlink:href="#aH"/><use transform="matrix(0.05,0,0,0.05,36.599999999999994,0)" xlink:href="#aM"/><use transform="matrix(0.05,0,0,0.05,41.599999999999994,0)" xlink:href="#bi"/><use transform="matrix(0.05,0,0,0.05,51.599999999999994,0)" xlink:href="#aJ"/><use transform="matrix(0.05,0,0,0.05,61.599999999999994,0)" xlink:href="#aN"/></g><path d="M84 4C-5 8 30-112 23-190h32v120c0 31 7 50 39 49 72-2 45-101 50-169h31l1 190h-30c-1-10 1-25-2-33-11 22-28 36-60 37" id="bx"/><g id="H"><use transform="matrix(0.05,0,0,0.05,0,0)" xlink:href="#aF"/><use transform="matrix(0.05,0,0,0.05,5.95,0)" xlink:href="#aP"/><use transform="matrix(0.05,0,0,0.05,15.949999999999998,0)" xlink:href="#aJ"/><use transform="matrix(0.05,0,0,0.05,25.950000000000003,0)" xlink:href="#aM"/><use transform="matrix(0.05,0,0,0.05,30.950000000000003,0)" xlink:href="#aS"/><use transform="matrix(0.05,0,0,0.05,40.95,0)" xlink:href="#aT"/><use transform="matrix(0.05,0,0,0.05,50.95,0)" xlink:href="#aU"/><use transform="matrix(0.05,0,0,0.05,59.95,0)" xlink:href="#aH"/><use transform="matrix(0.05,0,0,0.05,69.95,0)" xlink:href="#aV"/><use transform="matrix(0.05,0,0,0.05,73.9,0)" xlink:href="#br"/><use transform="matrix(0.05,0,0,0.05,84.85000000000001,0)" xlink:href="#aT"/><use transform="matrix(0.05,0,0,0.05,94.85000000000001,0)" xlink:href="#aN"/><use transform="matrix(0.05,0,0,0.05,100.80000000000001,0)" xlink:href="#aJ"/><use transform="matrix(0.05,0,0,0.05,110.80000000000001,0)" xlink:href="#aU"/><use transform="matrix(0.05,0,0,0.05,119.80000000000001,0)" xlink:href="#aH"/><use transform="matrix(0.05,0,0,0.05,129.8,0)" xlink:href="#aQ"/><use transform="matrix(0.05,0,0,0.05,138.8,0)" xlink:href="#aM"/><use transform="matrix(0.05,0,0,0.05,143.8,0)" xlink:href="#bb"/><use transform="matrix(0.05,0,0,0.05,149.75,0)" xlink:href="#aU"/><use transform="matrix(0.05,0,0,0.05,158.75,0)" xlink:href="#bx"/><use transform="matrix(0.05,0,0,0.05,168.75,0)" xlink:href="#aN"/><use transform="matrix(0.05,0,0,0.05,174.7,0)" xlink:href="#aN"/><use transform="matrix(0.05,0,0,0.05,180.64999999999998,0)" xlink:href="#aJ"/><use transform="matrix(0.05,0,0,0.05,190.64999999999998,0)" xlink:href="#aG"/><use transform="matrix(0.05,0,0,0.05,200.64999999999998,0)" xlink:href="#aM"/><use transform="matrix(0.05,0,0,0.05,205.64999999999998,0)" xlink:href="#aS"/><use transform="matrix(0.05,0,0,0.05,215.64999999999998,0)" xlink:href="#aT"/><use transform="matrix(0.05,0,0,0.05,225.64999999999998,0)" xlink:href="#aU"/><use transform="matrix(0.05,0,0,0.05,234.64999999999998,0)" xlink:href="#aH"/><use transform="matrix(0.05,0,0,0.05,244.64999999999998,0)" xlink:href="#aM"/><use transform="matrix(0.05,0,0,0.05,249.64999999999998,0)" xlink:href="#aO"/><use transform="matrix(0.05,0,0,0.05,253.59999999999997,0)" xlink:href="#aT"/><use transform="matrix(0.05,0,0,0.05,263.59999999999997,0)" xlink:href="#aG"/><use transform="matrix(0.05,0,0,0.05,273.59999999999997,0)" xlink:href="#bc"/></g><g id="I"><use transform="matrix(0.05,0,0,0.05,0,0)" xlink:href="#aF"/><use transform="matrix(0.05,0,0,0.05,5.95,0)" xlink:href="#aP"/><use transform="matrix(0.05,0,0,0.05,15.949999999999998,0)" xlink:href="#aJ"/><use transform="matrix(0.05,0,0,0.05,25.950000000000003,0)" xlink:href="#aM"/><use transform="matrix(0.05,0,0,0.05,30.950000000000003,0)" xlink:href="#aR"/><use transform="matrix(0.05,0,0,0.05,43.9,0)" xlink:href="#aJ"/><use transform="matrix(0.05,0,0,0.05,53.900000000000006,0)" xlink:href="#aQ"/><use transform="matrix(0.05,0,0,0.05,62.900000000000006,0)" xlink:href="#aM"/><use transform="matrix(0.05,0,0,0.05,67.9,0)" xlink:href="#aO"/><use transform="matrix(0.05,0,0,0.05,71.85000000000001,0)" xlink:href="#aG"/><use transform="matrix(0.05,0,0,0.05,81.85000000000001,0)" xlink:href="#aH"/><use transform="matrix(0.05,0,0,0.05,91.85000000000001,0)" xlink:href="#aM"/><use transform="matrix(0.05,0,0,0.05,96.85000000000001,0)" xlink:href="#aO"/><use transform="matrix(0.05,0,0,0.05,100.80000000000001,0)" xlink:href="#aT"/><use transform="matrix(0.05,0,0,0.05,110.80000000000001,0)" xlink:href="#aG"/><use transform="matrix(0.05,0,0,0.05,120.80000000000001,0)" xlink:href="#br"/><use transform="matrix(0.05,0,0,0.05,131.75,0)" xlink:href="#aT"/><use transform="matrix(0.05,0,0,0.05,141.75,0)" xlink:href="#aN"/><use transform="matrix(0.05,0,0,0.05,147.7,0)" xlink:href="#aJ"/><use transform="matrix(0.05,0,0,0.05,157.7,0)" xlink:href="#aU"/><use transform="matrix(0.05,0,0,0.05,166.7,0)" xlink:href="#aH"/><use transform="matrix(0.05,0,0,0.05,176.7,0)" xlink:href="#aQ"/><use transform="matrix(0.05,0,0,0.05,185.7,0)" xlink:href="#aM"/><use transform="matrix(0.05,0,0,0.05,190.7,0)" xlink:href="#bb"/><use transform="matrix(0.05,0,0,0.05,196.64999999999998,0)" xlink:href="#aW"/><use transform="matrix(0.05,0,0,0.05,206.64999999999998,0)" xlink:href="#aJ"/><use transform="matrix(0.05,0,0,0.05,216.64999999999998,0)" xlink:href="#aM"/><use transform="matrix(0.05,0,0,0.05,221.64999999999998,0)" xlink:href="#aO"/><use transform="matrix(0.05,0,0,0.05,225.59999999999997,0)" xlink:href="#aG"/><use transform="matrix(0.05,0,0,0.05,235.59999999999997,0)" xlink:href="#aH"/><use transform="matrix(0.05,0,0,0.05,245.59999999999997,0)" xlink:href="#aM"/><use transform="matrix(0.05,0,0,0.05,250.59999999999997,0)" xlink:href="#aO"/><use transform="matrix(0.05,0,0,0.05,254.54999999999995,0)" xlink:href="#aT"/><use transform="matrix(0.05,0,0,0.05,264.54999999999995,0)" xlink:href="#aG"/><use transform="matrix(0.05,0,0,0.05,274.54999999999995,0)" xlink:href="#aS"/><use transform="matrix(0.05,0,0,0.05,284.54999999999995,0)" xlink:href="#aT"/><use transform="matrix(0.05,0,0,0.05,294.54999999999995,0)" xlink:href="#aU"/><use transform="matrix(0.05,0,0,0.05,303.54999999999995,0)" xlink:href="#aH"/><use transform="matrix(0.05,0,0,0.05,313.54999999999995,0)" xlink:href="#aM"/><use transform="matrix(0.05,0,0,0.05,318.54999999999995,0)" xlink:href="#aO"/><use transform="matrix(0.05,0,0,0.05,322.49999999999994,0)" xlink:href="#aT"/><use transform="matrix(0.05,0,0,0.05,332.49999999999994,0)" xlink:href="#aG"/><use transform="matrix(0.05,0,0,0.05,342.49999999999994,0)" xlink:href="#bc"/></g><g id="J"><use transform="matrix(0.05,0,0,0.05,0,0)" xlink:href="#aF"/><use transform="matrix(0.05,0,0,0.05,5.95,0)" xlink:href="#aP"/><use transform="matrix(0.05,0,0,0.05,15.949999999999998,0)" xlink:href="#aJ"/><use transform="matrix(0.05,0,0,0.05,25.950000000000003,0)" xlink:href="#aM"/><use transform="matrix(0.05,0,0,0.05,30.950000000000003,0)" xlink:href="#aS"/><use transform="matrix(0.05,0,0,0.05,40.95,0)" xlink:href="#aT"/><use transform="matrix(0.05,0,0,0.05,50.95,0)" xlink:href="#aU"/><use transform="matrix(0.05,0,0,0.05,59.95,0)" xlink:href="#aH"/><use transform="matrix(0.05,0,0,0.05,69.95,0)" xlink:href="#aV"/><use transform="matrix(0.05,0,0,0.05,73.9,0)" xlink:href="#bg"/><use transform="matrix(0.05,0,0,0.05,84.85000000000001,0)" xlink:href="#bi"/><use transform="matrix(0.05,0,0,0.05,94.85000000000001,0)" xlink:href="#aN"/><use transform="matrix(0.05,0,0,0.05,100.80000000000001,0)" xlink:href="#aJ"/><use transform="matrix(0.05,0,0,0.05,110.80000000000001,0)" xlink:href="#aJ"/><use transform="matrix(0.05,0,0,0.05,120.80000000000001,0)" xlink:href="#aR"/><use transform="matrix(0.05,0,0,0.05,133.75,0)" xlink:href="#aH"/><use transform="matrix(0.05,0,0,0.05,143.75,0)" xlink:href="#bj"/><use transform="matrix(0.05,0,0,0.05,152.75,0)" xlink:href="#bb"/><use transform="matrix(0.05,0,0,0.05,158.7,0)" xlink:href="#aU"/><use transform="matrix(0.05,0,0,0.05,167.7,0)" xlink:href="#bx"/><use transform="matrix(0.05,0,0,0.05,177.7,0)" xlink:href="#aN"/><use transform="matrix(0.05,0,0,0.05,183.64999999999998,0)" xlink:href="#aN"/><use transform="matrix(0.05,0,0,0.05,189.59999999999997,0)" xlink:href="#aJ"/><use transform="matrix(0.05,0,0,0.05,199.59999999999997,0)" xlink:href="#aG"/><use transform="matrix(0.05,0,0,0.05,209.59999999999997,0)" xlink:href="#aM"/><use transform="matrix(0.05,0,0,0.05,214.59999999999997,0)" xlink:href="#aS"/><use transform="matrix(0.05,0,0,0.05,224.59999999999997,0)" xlink:href="#aT"/><use transform="matrix(0.05,0,0,0.05,234.59999999999997,0)" xlink:href="#aU"/><use transform="matrix(0.05,0,0,0.05,243.59999999999997,0)" xlink:href="#aH"/><use transform="matrix(0.05,0,0,0.05,253.59999999999997,0)" xlink:href="#aM"/><use transform="matrix(0.05,0,0,0.05,258.59999999999997,0)" xlink:href="#aO"/><use transform="matrix(0.05,0,0,0.05,262.54999999999995,0)" xlink:href="#aT"/><use transform="matrix(0.05,0,0,0.05,272.54999999999995,0)" xlink:href="#aG"/><use transform="matrix(0.05,0,0,0.05,282.54999999999995,0)" xlink:href="#bc"/><use transform="matrix(0.05,0,0,0.05,288.49999999999994,0)" xlink:href="#aK"/></g><g id="K"><use transform="matrix(0.05,0,0,0.05,0,0)" xlink:href="#aS"/><use transform="matrix(0.05,0,0,0.05,10,0)" xlink:href="#aO"/><use transform="matrix(0.05,0,0,0.05,13.949999999999998,0)" xlink:href="#aQ"/><use transform="matrix(0.05,0,0,0.05,22.95,0)" xlink:href="#aM"/><use transform="matrix(0.05,0,0,0.05,27.950000000000003,0)" xlink:href="#bp"/><use transform="matrix(0.05,0,0,0.05,38.45,0)" xlink:href="#br"/><use transform="matrix(0.05,0,0,0.05,49.400000000000006,0)" xlink:href="#aT"/><use transform="matrix(0.05,0,0,0.05,59.400000000000006,0)" xlink:href="#aN"/><use transform="matrix(0.05,0,0,0.05,65.35000000000001,0)" xlink:href="#aJ"/><use transform="matrix(0.05,0,0,0.05,75.35000000000001,0)" xlink:href="#aU"/><use transform="matrix(0.05,0,0,0.05,84.35000000000001,0)" xlink:href="#aH"/><use transform="matrix(0.05,0,0,0.05,94.35000000000001,0)" xlink:href="#aQ"/><use transform="matrix(0.05,0,0,0.05,103.35000000000001,0)" xlink:href="#aM"/><use transform="matrix(0.05,0,0,0.05,108.35000000000001,0)" xlink:href="#bq"/></g><g id="L"><use transform="matrix(0.05,0,0,0.05,0,0)" xlink:href="#aF"/><use transform="matrix(0.05,0,0,0.05,5.95,0)" xlink:href="#aP"/><use transform="matrix(0.05,0,0,0.05,15.949999999999998,0)" xlink:href="#aJ"/><use transform="matrix(0.05,0,0,0.05,25.950000000000003,0)" xlink:href="#aM"/><use transform="matrix(0.05,0,0,0.05,30.950000000000003,0)" xlink:href="#aR"/><use transform="matrix(0.05,0,0,0.05,43.9,0)" xlink:href="#aJ"/><use transform="matrix(0.05,0,0,0.05,53.900000000000006,0)" xlink:href="#aQ"/><use transform="matrix(0.05,0,0,0.05,62.900000000000006,0)" xlink:href="#aM"/><use transform="matrix(0.05,0,0,0.05,67.9,0)" xlink:href="#aO"/><use transform="matrix(0.05,0,0,0.05,71.85000000000001,0)" xlink:href="#aG"/><use transform="matrix(0.05,0,0,0.05,81.85000000000001,0)" xlink:href="#aH"/><use transform="matrix(0.05,0,0,0.05,91.85000000000001,0)" xlink:href="#aM"/><use transform="matrix(0.05,0,0,0.05,96.85000000000001,0)" xlink:href="#aO"/><use transform="matrix(0.05,0,0,0.05,100.80000000000001,0)" xlink:href="#aT"/><use transform="matrix(0.05,0,0,0.05,110.80000000000001,0)" xlink:href="#aG"/><use transform="matrix(0.05,0,0,0.05,120.80000000000001,0)" xlink:href="#bg"/><use transform="matrix(0.05,0,0,0.05,131.75,0)" xlink:href="#bi"/><use transform="matrix(0.05,0,0,0.05,141.75,0)" xlink:href="#aN"/><use transform="matrix(0.05,0,0,0.05,147.7,0)" xlink:href="#aJ"/><use transform="matrix(0.05,0,0,0.05,157.7,0)" xlink:href="#aJ"/><use transform="matrix(0.05,0,0,0.05,167.7,0)" xlink:href="#aR"/><use transform="matrix(0.05,0,0,0.05,180.64999999999998,0)" xlink:href="#aH"/><use transform="matrix(0.05,0,0,0.05,190.64999999999998,0)" xlink:href="#bj"/><use transform="matrix(0.05,0,0,0.05,199.64999999999998,0)" xlink:href="#bb"/><use transform="matrix(0.05,0,0,0.05,205.59999999999997,0)" xlink:href="#aW"/><use transform="matrix(0.05,0,0,0.05,215.59999999999997,0)" xlink:href="#aJ"/><use transform="matrix(0.05,0,0,0.05,225.59999999999997,0)" xlink:href="#aQ"/><use transform="matrix(0.05,0,0,0.05,234.59999999999997,0)" xlink:href="#aM"/><use transform="matrix(0.05,0,0,0.05,239.59999999999997,0)" xlink:href="#aO"/><use transform="matrix(0.05,0,0,0.05,243.54999999999995,0)" xlink:href="#aG"/><use transform="matrix(0.05,0,0,0.05,253.54999999999995,0)" xlink:href="#aH"/><use transform="matrix(0.05,0,0,0.05,263.54999999999995,0)" xlink:href="#aM"/><use transform="matrix(0.05,0,0,0.05,268.54999999999995,0)" xlink:href="#aO"/><use transform="matrix(0.05,0,0,0.05,272.49999999999994,0)" xlink:href="#aT"/><use transform="matrix(0.05,0,0,0.05,282.49999999999994,0)" xlink:href="#aG"/><use transform="matrix(0.05,0,0,0.05,292.49999999999994,0)" xlink:href="#aS"/><use transform="matrix(0.05,0,0,0.05,302.49999999999994,0)" xlink:href="#aT"/><use transform="matrix(0.05,0,0,0.05,312.49999999999994,0)" xlink:href="#aU"/><use transform="matrix(0.05,0,0,0.05,321.49999999999994,0)" xlink:href="#aH"/><use transform="matrix(0.05,0,0,0.05,331.49999999999994,0)" xlink:href="#aM"/><use transform="matrix(0.05,0,0,0.05,336.49999999999994,0)" xlink:href="#aO"/><use transform="matrix(0.05,0,0,0.05,340.44999999999993,0)" xlink:href="#aT"/><use transform="matrix(0.05,0,0,0.05,350.44999999999993,0)" xlink:href="#aG"/><use transform="matrix(0.05,0,0,0.05,360.44999999999993,0)" xlink:href="#bc"/><use transform="matrix(0.05,0,0,0.05,366.3999999999999,0)" xlink:href="#aK"/></g><g id="M"><use transform="matrix(0.05,0,0,0.05,0,0)" xlink:href="#aS"/><use transform="matrix(0.05,0,0,0.05,10,0)" xlink:href="#aO"/><use transform="matrix(0.05,0,0,0.05,13.949999999999998,0)" xlink:href="#aQ"/><use transform="matrix(0.05,0,0,0.05,22.95,0)" xlink:href="#aM"/><use transform="matrix(0.05,0,0,0.05,27.950000000000003,0)" xlink:href="#bp"/><use transform="matrix(0.05,0,0,0.05,38.45,0)" xlink:href="#br"/><use transform="matrix(0.05,0,0,0.05,49.400000000000006,0)" xlink:href="#aT"/><use transform="matrix(0.05,0,0,0.05,59.400000000000006,0)" xlink:href="#aN"/><use transform="matrix(0.05,0,0,0.05,65.35000000000001,0)" xlink:href="#aJ"/><use transform="matrix(0.05,0,0,0.05,75.35000000000001,0)" xlink:href="#aU"/><use transform="matrix(0.05,0,0,0.05,84.35000000000001,0)" xlink:href="#aH"/><use transform="matrix(0.05,0,0,0.05,94.35000000000001,0)" xlink:href="#aQ"/><use transform="matrix(0.05,0,0,0.05,103.35000000000001,0)" xlink:href="#aM"/><use transform="matrix(0.05,0,0,0.05,108.35000000000001,0)" xlink:href="#bq"/></g><g id="N"><use transform="matrix(0.05,0,0,0.05,0,0)" xlink:href="#br"/><use transform="matrix(0.05,0,0,0.05,10.950000000000001,0)" xlink:href="#aT"/><use transform="matrix(0.05,0,0,0.05,20.950000000000003,0)" xlink:href="#aN"/><use transform="matrix(0.05,0,0,0.05,26.900000000000002,0)" xlink:href="#aJ"/><use transform="matrix(0.05,0,0,0.05,36.900000000000006,0)" xlink:href="#aU"/><use transform="matrix(0.05,0,0,0.05,45.900000000000006,0)" xlink:href="#aH"/><use transform="matrix(0.05,0,0,0.05,55.900000000000006,0)" xlink:href="#aQ"/><use transform="matrix(0.05,0,0,0.05,64.9,0)" xlink:href="#aM"/></g><g id="O"><use transform="matrix(0.05,0,0,0.05,0,0)" xlink:href="#aF"/><use transform="matrix(0.05,0,0,0.05,5.95,0)" xlink:href="#aU"/><use transform="matrix(0.05,0,0,0.05,14.949999999999998,0)" xlink:href="#bx"/><use transform="matrix(0.05,0,0,0.05,24.95,0)" xlink:href="#aN"/><use transform="matrix(0.05,0,0,0.05,30.899999999999995,0)" xlink:href="#aN"/><use transform="matrix(0.05,0,0,0.05,36.85,0)" xlink:href="#aJ"/><use transform="matrix(0.05,0,0,0.05,46.85,0)" xlink:href="#aG"/><use transform="matrix(0.05,0,0,0.05,56.85,0)" xlink:href="#aM"/><use transform="matrix(0.05,0,0,0.05,61.85,0)" xlink:href="#bg"/><use transform="matrix(0.05,0,0,0.05,70.8,0)" xlink:href="#aJ"/><use transform="matrix(0.05,0,0,0.05,80.8,0)" xlink:href="#aI"/><use transform="matrix(0.05,0,0,0.05,95.75,0)" xlink:href="#aY"/><use transform="matrix(0.05,0,0,0.05,105.75,0)" xlink:href="#aK"/></g><path d="M197 0v-115H63V0H30v-248h33v105h134v-105h34V0h-34" id="by"/><g id="P"><use transform="matrix(0.05,0,0,0.05,0,0)" xlink:href="#aF"/><use transform="matrix(0.05,0,0,0.05,5.95,0)" xlink:href="#aW"/><use transform="matrix(0.05,0,0,0.05,15.949999999999998,0)" xlink:href="#aH"/><use transform="matrix(0.05,0,0,0.05,25.950000000000003,0)" xlink:href="#bj"/><use transform="matrix(0.05,0,0,0.05,34.95,0)" xlink:href="#by"/><use transform="matrix(0.05,0,0,0.05,47.900000000000006,0)" xlink:href="#aO"/><use transform="matrix(0.05,0,0,0.05,51.85,0)" xlink:href="#aP"/><use transform="matrix(0.05,0,0,0.05,61.85,0)" xlink:href="#bi"/><use transform="matrix(0.05,0,0,0.05,71.85000000000001,0)" xlink:href="#aK"/></g><path d="M206 0h-36l-40-164L89 0H53L-1-190h32L70-26l43-164h34l41 164 42-164h31" id="bz"/><g id="Q"><use transform="matrix(0.05,0,0,0.05,0,0)" xlink:href="#aF"/><use transform="matrix(0.05,0,0,0.05,5.95,0)" xlink:href="#aW"/><use transform="matrix(0.05,0,0,0.05,15.949999999999998,0)" xlink:href="#aH"/><use transform="matrix(0.05,0,0,0.05,25.950000000000003,0)" xlink:href="#bj"/><use transform="matrix(0.05,0,0,0.05,34.95,0)" xlink:href="#aS"/><use transform="matrix(0.05,0,0,0.05,44.95,0)" xlink:href="#aT"/><use transform="matrix(0.05,0,0,0.05,54.95,0)" xlink:href="#bz"/><use transform="matrix(0.05,0,0,0.05,67.9,0)" xlink:href="#aK"/></g><g id="R"><use transform="matrix(0.05,0,0,0.05,0,0)" xlink:href="#aF"/><use transform="matrix(0.05,0,0,0.05,5.95,0)" xlink:href="#aQ"/><use transform="matrix(0.05,0,0,0.05,14.949999999999998,0)" xlink:href="#bi"/><use transform="matrix(0.05,0,0,0.05,24.95,0)" xlink:href="#aT"/><use transform="matrix(0.05,0,0,0.05,34.95,0)" xlink:href="#aN"/><use transform="matrix(0.05,0,0,0.05,40.900000000000006,0)" xlink:href="#aM"/><use transform="matrix(0.05,0,0,0.05,45.900000000000006,0)" xlink:href="#aR"/><use transform="matrix(0.05,0,0,0.05,58.85,0)" xlink:href="#aJ"/><use transform="matrix(0.05,0,0,0.05,68.85000000000001,0)" xlink:href="#aQ"/><use transform="matrix(0.05,0,0,0.05,77.85000000000001,0)" xlink:href="#aU"/><use transform="matrix(0.05,0,0,0.05,86.85000000000001,0)" xlink:href="#aN"/><use transform="matrix(0.05,0,0,0.05,92.80000000000001,0)" xlink:href="#aO"/><use transform="matrix(0.05,0,0,0.05,96.75000000000001,0)" xlink:href="#aY"/><use transform="matrix(0.05,0,0,0.05,106.75,0)" xlink:href="#aM"/><use transform="matrix(0.05,0,0,0.05,111.75,0)" xlink:href="#aO"/><use transform="matrix(0.05,0,0,0.05,115.7,0)" xlink:href="#aT"/><use transform="matrix(0.05,0,0,0.05,125.7,0)" xlink:href="#aG"/><use transform="matrix(0.05,0,0,0.05,135.70000000000002,0)" xlink:href="#aK"/></g><path d="M115-194c53 0 69 39 70 98 0 66-23 100-70 100C84 3 66-7 56-30L54 0H23l1-261h32v101c10-23 28-34 59-34zm-8 174c40 0 45-34 45-75 0-40-5-75-45-74-42 0-51 32-51 76 0 43 10 73 51 73" id="bA"/><g id="S"><use transform="matrix(0.05,0,0,0.05,0,0)" xlink:href="#aF"/><use transform="matrix(0.05,0,0,0.05,5.95,0)" xlink:href="#aN"/><use transform="matrix(0.05,0,0,0.05,11.9,0)" xlink:href="#aH"/><use transform="matrix(0.05,0,0,0.05,21.9,0)" xlink:href="#aO"/><use transform="matrix(0.05,0,0,0.05,25.849999999999994,0)" xlink:href="#aG"/><use transform="matrix(0.05,0,0,0.05,35.849999999999994,0)" xlink:href="#bd"/><use transform="matrix(0.05,0,0,0.05,47.849999999999994,0)" xlink:href="#aN"/><use transform="matrix(0.05,0,0,0.05,53.79999999999999,0)" xlink:href="#aT"/><use transform="matrix(0.05,0,0,0.05,63.79999999999999,0)" xlink:href="#bA"/><use transform="matrix(0.05,0,0,0.05,73.8,0)" xlink:href="#aH"/><use transform="matrix(0.05,0,0,0.05,83.8,0)" xlink:href="#bA"/><use transform="matrix(0.05,0,0,0.05,93.8,0)" xlink:href="#aO"/><use transform="matrix(0.05,0,0,0.05,97.75,0)" xlink:href="#aV"/><use transform="matrix(0.05,0,0,0.05,101.7,0)" xlink:href="#aO"/><use transform="matrix(0.05,0,0,0.05,105.65,0)" xlink:href="#aM"/><use transform="matrix(0.05,0,0,0.05,110.65,0)" xlink:href="#bj"/><use transform="matrix(0.05,0,0,0.05,119.65,0)" xlink:href="#aK"/></g><g id="T"><use transform="matrix(0.05,0,0,0.05,0,0)" xlink:href="#aF"/><use transform="matrix(0.05,0,0,0.05,5.95,0)" xlink:href="#aM"/><use transform="matrix(0.05,0,0,0.05,10.95,0)" xlink:href="#aJ"/><use transform="matrix(0.05,0,0,0.05,20.95,0)" xlink:href="#aI"/><use transform="matrix(0.05,0,0,0.05,35.9,0)" xlink:href="#aY"/><use transform="matrix(0.05,0,0,0.05,45.9,0)" xlink:href="#br"/><use transform="matrix(0.05,0,0,0.05,56.85,0)" xlink:href="#aT"/><use transform="matrix(0.05,0,0,0.05,66.85,0)" xlink:href="#aN"/><use transform="matrix(0.05,0,0,0.05,72.8,0)" xlink:href="#aJ"/><use transform="matrix(0.05,0,0,0.05,82.8,0)" xlink:href="#aU"/><use transform="matrix(0.05,0,0,0.05,91.8,0)" xlink:href="#aH"/><use transform="matrix(0.05,0,0,0.05,101.8,0)" xlink:href="#aQ"/><use transform="matrix(0.05,0,0,0.05,110.80000000000001,0)" xlink:href="#aM"/><use transform="matrix(0.05,0,0,0.05,115.80000000000001,0)" xlink:href="#aK"/></g><g id="U"><use transform="matrix(0.05,0,0,0.05,0,0)" xlink:href="#bl"/><use transform="matrix(0.05,0,0,0.05,12.950000000000001,0)" xlink:href="#aT"/><use transform="matrix(0.05,0,0,0.05,22.950000000000003,0)" xlink:href="#aG"/><use transform="matrix(0.05,0,0,0.05,32.95,0)" xlink:href="#aM"/><use transform="matrix(0.05,0,0,0.05,37.95,0)" xlink:href="#aN"/><use transform="matrix(0.05,0,0,0.05,43.900000000000006,0)" xlink:href="#aT"/><use transform="matrix(0.05,0,0,0.05,53.900000000000006,0)" xlink:href="#aV"/><use transform="matrix(0.05,0,0,0.05,57.85,0)" xlink:href="#aV"/><use transform="matrix(0.05,0,0,0.05,61.80000000000001,0)" xlink:href="#aJ"/><use transform="matrix(0.05,0,0,0.05,71.80000000000001,0)" xlink:href="#aN"/></g><g id="V"><use transform="matrix(0.05,0,0,0.05,0,0)" xlink:href="#bm"/><use transform="matrix(0.05,0,0,0.05,10.5,0)" xlink:href="#aU"/><use transform="matrix(0.05,0,0,0.05,19.5,0)" xlink:href="#bx"/><use transform="matrix(0.05,0,0,0.05,29.5,0)" xlink:href="#aN"/><use transform="matrix(0.05,0,0,0.05,35.45,0)" xlink:href="#aN"/><use transform="matrix(0.05,0,0,0.05,41.400000000000006,0)" xlink:href="#aJ"/><use transform="matrix(0.05,0,0,0.05,51.400000000000006,0)" xlink:href="#aG"/><use transform="matrix(0.05,0,0,0.05,61.400000000000006,0)" xlink:href="#aM"/><use transform="matrix(0.05,0,0,0.05,66.4,0)" xlink:href="#aS"/><use transform="matrix(0.05,0,0,0.05,76.4,0)" xlink:href="#aT"/><use transform="matrix(0.05,0,0,0.05,86.4,0)" xlink:href="#aU"/><use transform="matrix(0.05,0,0,0.05,95.4,0)" xlink:href="#aH"/><use transform="matrix(0.05,0,0,0.05,105.4,0)" xlink:href="#aM"/><use transform="matrix(0.05,0,0,0.05,110.4,0)" xlink:href="#aO"/><use transform="matrix(0.05,0,0,0.05,114.35000000000001,0)" xlink:href="#aT"/><use transform="matrix(0.05,0,0,0.05,124.35000000000001,0)" xlink:href="#aG"/><use transform="matrix(0.05,0,0,0.05,134.35000000000002,0)" xlink:href="#aK"/></g><g id="W"><use transform="matrix(0.05,0,0,0.05,0,0)" xlink:href="#bd"/><use transform="matrix(0.05,0,0,0.05,12,0)" xlink:href="#aV"/><use transform="matrix(0.05,0,0,0.05,15.949999999999998,0)" xlink:href="#aH"/><use transform="matrix(0.05,0,0,0.05,25.950000000000003,0)" xlink:href="#aU"/><use transform="matrix(0.05,0,0,0.05,34.95,0)" xlink:href="#aJ"/><use transform="matrix(0.05,0,0,0.05,44.95,0)" xlink:href="#be"/><use transform="matrix(0.05,0,0,0.05,49.95,0)" xlink:href="#aW"/></g><path d="M233-177c-1 41-23 64-60 70L243 0h-38l-65-103H63V0H30v-248c88 3 205-21 203 71zM63-129c60-2 137 13 137-47 0-61-80-42-137-45v92" id="bB"/><g id="X"><use transform="matrix(0.05,0,0,0.05,0,0)" xlink:href="#aF"/><use transform="matrix(0.05,0,0,0.05,5.95,0)" xlink:href="#aN"/><use transform="matrix(0.05,0,0,0.05,11.9,0)" xlink:href="#aJ"/><use transform="matrix(0.05,0,0,0.05,21.9,0)" xlink:href="#ba"/><use transform="matrix(0.05,0,0,0.05,26.899999999999995,0)" xlink:href="#aN"/><use transform="matrix(0.05,0,0,0.05,32.85,0)" xlink:href="#aJ"/><use transform="matrix(0.05,0,0,0.05,42.85,0)" xlink:href="#aQ"/><use transform="matrix(0.05,0,0,0.05,51.85,0)" xlink:href="#bi"/><use transform="matrix(0.05,0,0,0.05,61.85,0)" xlink:href="#bB"/><use transform="matrix(0.05,0,0,0.05,74.8,0)" xlink:href="#aH"/><use transform="matrix(0.05,0,0,0.05,84.8,0)" xlink:href="#aM"/><use transform="matrix(0.05,0,0,0.05,89.8,0)" xlink:href="#aJ"/><use transform="matrix(0.05,0,0,0.05,99.8,0)" xlink:href="#bs"/><use transform="matrix(0.05,0,0,0.05,116.4,0)" xlink:href="#aJ"/><use transform="matrix(0.05,0,0,0.05,126.4,0)" xlink:href="#aH"/><use transform="matrix(0.05,0,0,0.05,136.4,0)" xlink:href="#aM"/><use transform="matrix(0.05,0,0,0.05,141.4,0)" xlink:href="#bi"/><use transform="matrix(0.05,0,0,0.05,151.4,0)" xlink:href="#aJ"/><use transform="matrix(0.05,0,0,0.05,161.4,0)" xlink:href="#aN"/><use transform="matrix(0.05,0,0,0.05,167.35,0)" xlink:href="#aK"/></g><g id="Y"><use transform="matrix(0.05,0,0,0.05,0,0)" xlink:href="#aW"/><use transform="matrix(0.05,0,0,0.05,10,0)" xlink:href="#aT"/><use transform="matrix(0.05,0,0,0.05,20,0)" xlink:href="#bx"/><use transform="matrix(0.05,0,0,0.05,30,0)" xlink:href="#bA"/><use transform="matrix(0.05,0,0,0.05,40,0)" xlink:href="#aV"/><use transform="matrix(0.05,0,0,0.05,43.95,0)" xlink:href="#aJ"/></g><g id="Z"><use transform="matrix(0.05,0,0,0.05,0,0)" xlink:href="#aF"/><use transform="matrix(0.05,0,0,0.05,5.95,0)" xlink:href="#aP"/><use transform="matrix(0.05,0,0,0.05,15.949999999999998,0)" xlink:href="#aJ"/><use transform="matrix(0.05,0,0,0.05,25.950000000000003,0)" xlink:href="#aM"/><use transform="matrix(0.05,0,0,0.05,30.950000000000003,0)" xlink:href="#bl"/><use transform="matrix(0.05,0,0,0.05,43.9,0)" xlink:href="#bx"/><use transform="matrix(0.05,0,0,0.05,53.900000000000006,0)" xlink:href="#aN"/><use transform="matrix(0.05,0,0,0.05,59.85,0)" xlink:href="#aN"/><use transform="matrix(0.05,0,0,0.05,65.8,0)" xlink:href="#aJ"/><use transform="matrix(0.05,0,0,0.05,75.8,0)" xlink:href="#aG"/><use transform="matrix(0.05,0,0,0.05,85.8,0)" xlink:href="#aM"/><use transform="matrix(0.05,0,0,0.05,90.8,0)" xlink:href="#aS"/><use transform="matrix(0.05,0,0,0.05,100.8,0)" xlink:href="#aT"/><use transform="matrix(0.05,0,0,0.05,110.80000000000001,0)" xlink:href="#aU"/><use transform="matrix(0.05,0,0,0.05,119.80000000000001,0)" xlink:href="#aH"/><use transform="matrix(0.05,0,0,0.05,129.8,0)" xlink:href="#aM"/><use transform="matrix(0.05,0,0,0.05,134.8,0)" xlink:href="#aO"/><use transform="matrix(0.05,0,0,0.05,138.75,0)" xlink:href="#aT"/><use transform="matrix(0.05,0,0,0.05,148.75,0)" xlink:href="#aG"/><use transform="matrix(0.05,0,0,0.05,158.75,0)" xlink:href="#aK"/></g><g id="aa"><use transform="matrix(0.05,0,0,0.05,0,0)" xlink:href="#aF"/><use transform="matrix(0.05,0,0,0.05,5.95,0)" xlink:href="#aP"/><use transform="matrix(0.05,0,0,0.05,15.949999999999998,0)" xlink:href="#aJ"/><use transform="matrix(0.05,0,0,0.05,25.950000000000003,0)" xlink:href="#aM"/><use transform="matrix(0.05,0,0,0.05,30.950000000000003,0)" xlink:href="#bs"/><use transform="matrix(0.05,0,0,0.05,47.55,0)" xlink:href="#aJ"/><use transform="matrix(0.05,0,0,0.05,57.54999999999999,0)" xlink:href="#aH"/><use transform="matrix(0.05,0,0,0.05,67.55,0)" xlink:href="#aM"/><use transform="matrix(0.05,0,0,0.05,72.55,0)" xlink:href="#bi"/><use transform="matrix(0.05,0,0,0.05,82.55,0)" xlink:href="#aJ"/><use transform="matrix(0.05,0,0,0.05,92.55,0)" xlink:href="#aN"/><use transform="matrix(0.05,0,0,0.05,98.5,0)" xlink:href="#br"/><use transform="matrix(0.05,0,0,0.05,109.45,0)" xlink:href="#aT"/><use transform="matrix(0.05,0,0,0.05,119.45,0)" xlink:href="#aN"/><use transform="matrix(0.05,0,0,0.05,125.4,0)" xlink:href="#bb"/><use transform="matrix(0.05,0,0,0.05,131.35,0)" xlink:href="#bd"/><use transform="matrix(0.05,0,0,0.05,143.35,0)" xlink:href="#aV"/><use transform="matrix(0.05,0,0,0.05,147.29999999999998,0)" xlink:href="#aH"/><use transform="matrix(0.05,0,0,0.05,157.29999999999998,0)" xlink:href="#aU"/><use transform="matrix(0.05,0,0,0.05,166.29999999999998,0)" xlink:href="#aJ"/><use transform="matrix(0.05,0,0,0.05,176.29999999999998,0)" xlink:href="#be"/><use transform="matrix(0.05,0,0,0.05,181.29999999999998,0)" xlink:href="#aW"/><use transform="matrix(0.05,0,0,0.05,191.29999999999998,0)" xlink:href="#bc"/></g><g id="ab"><use transform="matrix(0.05,0,0,0.05,0,0)" xlink:href="#bg"/><use transform="matrix(0.05,0,0,0.05,10.3,0)" xlink:href="#aN"/><use transform="matrix(0.05,0,0,0.05,16.25,0)" xlink:href="#aH"/><use transform="matrix(0.05,0,0,0.05,26.25,0)" xlink:href="#aG"/><use transform="matrix(0.05,0,0,0.05,36.25,0)" xlink:href="#aQ"/><use transform="matrix(0.05,0,0,0.05,45.25,0)" xlink:href="#aO"/><use transform="matrix(0.05,0,0,0.05,49.2,0)" xlink:href="#aM"/></g><g id="ac"><use transform="matrix(0.05,0,0,0.05,0,0)" xlink:href="#bm"/><use transform="matrix(0.05,0,0,0.05,10.5,0)" xlink:href="#aH"/><use transform="matrix(0.05,0,0,0.05,20.5,0)" xlink:href="#aV"/><use transform="matrix(0.05,0,0,0.05,24.45,0)" xlink:href="#aV"/><use transform="matrix(0.05,0,0,0.05,28.399999999999995,0)" xlink:href="#bd"/><use transform="matrix(0.05,0,0,0.05,40.4,0)" xlink:href="#aT"/><use transform="matrix(0.05,0,0,0.05,50.4,0)" xlink:href="#aQ"/><use transform="matrix(0.05,0,0,0.05,59.400000000000006,0)" xlink:href="#aQ"/><use transform="matrix(0.05,0,0,0.05,68.4,0)" xlink:href="#aO"/><use transform="matrix(0.05,0,0,0.05,72.35000000000001,0)" xlink:href="#bA"/><use transform="matrix(0.05,0,0,0.05,82.35000000000001,0)" xlink:href="#aV"/><use transform="matrix(0.05,0,0,0.05,86.30000000000001,0)" xlink:href="#aJ"/><use transform="matrix(0.05,0,0,0.05,96.30000000000001,0)" xlink:href="#bg"/><use transform="matrix(0.05,0,0,0.05,106.60000000000001,0)" xlink:href="#aN"/><use transform="matrix(0.05,0,0,0.05,112.55000000000001,0)" xlink:href="#aH"/><use transform="matrix(0.05,0,0,0.05,122.55000000000001,0)" xlink:href="#aG"/><use transform="matrix(0.05,0,0,0.05,132.55,0)" xlink:href="#aQ"/><use transform="matrix(0.05,0,0,0.05,141.55,0)" xlink:href="#aO"/><use transform="matrix(0.05,0,0,0.05,145.5,0)" xlink:href="#aM"/><use transform="matrix(0.05,0,0,0.05,150.5,0)" xlink:href="#aO"/><use transform="matrix(0.05,0,0,0.05,154.45,0)" xlink:href="#aT"/><use transform="matrix(0.05,0,0,0.05,164.45,0)" xlink:href="#aG"/><use transform="matrix(0.05,0,0,0.05,174.45,0)" xlink:href="#aQ"/><use transform="matrix(0.05,0,0,0.05,183.45,0)" xlink:href="#aK"/></g><g id="ad"><use transform="matrix(0.05,0,0,0.05,0,0)" xlink:href="#aS"/><use transform="matrix(0.05,0,0,0.05,10,0)" xlink:href="#aO"/><use transform="matrix(0.05,0,0,0.05,13.949999999999998,0)" xlink:href="#aQ"/><use transform="matrix(0.05,0,0,0.05,22.95,0)" xlink:href="#aM"/><use transform="matrix(0.05,0,0,0.05,27.950000000000003,0)" xlink:href="#bp"/><use transform="matrix(0.05,0,0,0.05,38.45,0)" xlink:href="#aL"/><use transform="matrix(0.05,0,0,0.05,50.45,0)" xlink:href="#aO"/><use transform="matrix(0.05,0,0,0.05,54.400000000000006,0)" xlink:href="#aG"/><use transform="matrix(0.05,0,0,0.05,64.4,0)" xlink:href="#aP"/><use transform="matrix(0.05,0,0,0.05,74.4,0)" xlink:href="#aV"/><use transform="matrix(0.05,0,0,0.05,78.35000000000001,0)" xlink:href="#aJ"/><use transform="matrix(0.05,0,0,0.05,88.35000000000001,0)" xlink:href="#bg"/><use transform="matrix(0.05,0,0,0.05,98.65,0)" xlink:href="#aN"/><use transform="matrix(0.05,0,0,0.05,104.60000000000001,0)" xlink:href="#aH"/><use transform="matrix(0.05,0,0,0.05,114.60000000000001,0)" xlink:href="#aG"/><use transform="matrix(0.05,0,0,0.05,124.60000000000001,0)" xlink:href="#aQ"/><use transform="matrix(0.05,0,0,0.05,133.60000000000002,0)" xlink:href="#aO"/><use transform="matrix(0.05,0,0,0.05,137.55,0)" xlink:href="#aM"/><use transform="matrix(0.05,0,0,0.05,142.55,0)" xlink:href="#aO"/><use transform="matrix(0.05,0,0,0.05,146.5,0)" xlink:href="#aT"/><use transform="matrix(0.05,0,0,0.05,156.5,0)" xlink:href="#aG"/><use transform="matrix(0.05,0,0,0.05,166.5,0)" xlink:href="#bq"/></g><g id="ae"><use transform="matrix(0.05,0,0,0.05,0,0)" xlink:href="#aF"/><use transform="matrix(0.05,0,0,0.05,5.95,0)" xlink:href="#aP"/><use transform="matrix(0.05,0,0,0.05,15.949999999999998,0)" xlink:href="#aJ"/><use transform="matrix(0.05,0,0,0.05,25.950000000000003,0)" xlink:href="#aM"/><use transform="matrix(0.05,0,0,0.05,30.950000000000003,0)" xlink:href="#bf"/><use transform="matrix(0.05,0,0,0.05,42.95,0)" xlink:href="#aV"/><use transform="matrix(0.05,0,0,0.05,46.900000000000006,0)" xlink:href="#aV"/><use transform="matrix(0.05,0,0,0.05,50.85000000000001,0)" xlink:href="#bg"/><use transform="matrix(0.05,0,0,0.05,61.15000000000001,0)" xlink:href="#aN"/><use transform="matrix(0.05,0,0,0.05,67.10000000000001,0)" xlink:href="#aH"/><use transform="matrix(0.05,0,0,0.05,77.10000000000001,0)" xlink:href="#aG"/><use transform="matrix(0.05,0,0,0.05,87.10000000000001,0)" xlink:href="#aQ"/><use transform="matrix(0.05,0,0,0.05,96.10000000000001,0)" xlink:href="#aO"/><use transform="matrix(0.05,0,0,0.05,100.05000000000001,0)" xlink:href="#aM"/><use transform="matrix(0.05,0,0,0.05,105.05000000000001,0)" xlink:href="#aO"/><use transform="matrix(0.05,0,0,0.05,109,0)" xlink:href="#aT"/><use transform="matrix(0.05,0,0,0.05,119,0)" xlink:href="#aG"/><use transform="matrix(0.05,0,0,0.05,129,0)" xlink:href="#aQ"/><use transform="matrix(0.05,0,0,0.05,138,0)" xlink:href="#bb"/><use transform="matrix(0.05,0,0,0.05,143.95,0)" xlink:href="#bc"/></g><g id="af"><use transform="matrix(0.05,0,0,0.05,0,0)" xlink:href="#aL"/><use transform="matrix(0.05,0,0,0.05,12,0)" xlink:href="#aO"/><use transform="matrix(0.05,0,0,0.05,15.949999999999998,0)" xlink:href="#aG"/><use transform="matrix(0.05,0,0,0.05,25.950000000000003,0)" xlink:href="#aP"/><use transform="matrix(0.05,0,0,0.05,35.95,0)" xlink:href="#aJ"/><use transform="matrix(0.05,0,0,0.05,45.95,0)" xlink:href="#bg"/><use transform="matrix(0.05,0,0,0.05,56.25,0)" xlink:href="#aN"/><use transform="matrix(0.05,0,0,0.05,62.20000000000002,0)" xlink:href="#aH"/><use transform="matrix(0.05,0,0,0.05,72.20000000000002,0)" xlink:href="#aG"/><use transform="matrix(0.05,0,0,0.05,82.20000000000002,0)" xlink:href="#aQ"/><use transform="matrix(0.05,0,0,0.05,91.20000000000002,0)" xlink:href="#aO"/><use transform="matrix(0.05,0,0,0.05,95.15000000000002,0)" xlink:href="#aM"/><use transform="matrix(0.05,0,0,0.05,100.15000000000002,0)" xlink:href="#aO"/><use transform="matrix(0.05,0,0,0.05,104.10000000000002,0)" xlink:href="#aT"/><use transform="matrix(0.05,0,0,0.05,114.10000000000002,0)" xlink:href="#aG"/></g><g id="ag"><use transform="matrix(0.05,0,0,0.05,0,0)" xlink:href="#bm"/><use transform="matrix(0.05,0,0,0.05,10.5,0)" xlink:href="#aM"/><use transform="matrix(0.05,0,0,0.05,15.5,0)" xlink:href="#aN"/><use transform="matrix(0.05,0,0,0.05,21.45,0)" xlink:href="#aH"/><use transform="matrix(0.05,0,0,0.05,31.450000000000003,0)" xlink:href="#aG"/><use transform="matrix(0.05,0,0,0.05,41.45,0)" xlink:href="#aQ"/><use transform="matrix(0.05,0,0,0.05,50.45,0)" xlink:href="#aO"/><use transform="matrix(0.05,0,0,0.05,54.400000000000006,0)" xlink:href="#aM"/><use transform="matrix(0.05,0,0,0.05,59.400000000000006,0)" xlink:href="#aO"/><use transform="matrix(0.05,0,0,0.05,63.35,0)" xlink:href="#aT"/><use transform="matrix(0.05,0,0,0.05,73.35000000000001,0)" xlink:href="#aG"/><use transform="matrix(0.05,0,0,0.05,83.35000000000001,0)" xlink:href="#aK"/></g><g id="ah"><use transform="matrix(0.05,0,0,0.05,0,0)" xlink:href="#aS"/><use transform="matrix(0.05,0,0,0.05,10,0)" xlink:href="#aO"/><use transform="matrix(0.05,0,0,0.05,13.949999999999998,0)" xlink:href="#aQ"/><use transform="matrix(0.05,0,0,0.05,22.95,0)" xlink:href="#aM"/><use transform="matrix(0.05,0,0,0.05,27.950000000000003,0)" xlink:href="#bp"/><use transform="matrix(0.05,0,0,0.05,38.45,0)" xlink:href="#bd"/><use transform="matrix(0.05,0,0,0.05,50.45,0)" xlink:href="#aH"/><use transform="matrix(0.05,0,0,0.05,60.45,0)" xlink:href="#aN"/><use transform="matrix(0.05,0,0,0.05,66.4,0)" xlink:href="#aM"/><use transform="matrix(0.05,0,0,0.05,71.4,0)" xlink:href="#bg"/><use transform="matrix(0.05,0,0,0.05,81.7,0)" xlink:href="#aN"/><use transform="matrix(0.05,0,0,0.05,87.65,0)" xlink:href="#aH"/><use transform="matrix(0.05,0,0,0.05,97.65,0)" xlink:href="#aG"/><use transform="matrix(0.05,0,0,0.05,107.65,0)" xlink:href="#aQ"/><use transform="matrix(0.05,0,0,0.05,116.65,0)" xlink:href="#aO"/><use transform="matrix(0.05,0,0,0.05,120.60000000000001,0)" xlink:href="#aM"/><use transform="matrix(0.05,0,0,0.05,125.60000000000001,0)" xlink:href="#aO"/><use transform="matrix(0.05,0,0,0.05,129.55,0)" xlink:href="#aT"/><use transform="matrix(0.05,0,0,0.05,139.55,0)" xlink:href="#aG"/><use transform="matrix(0.05,0,0,0.05,149.55,0)" xlink:href="#bq"/></g><g id="ai"><use transform="matrix(0.05,0,0,0.05,0,0)" xlink:href="#bm"/><use transform="matrix(0.05,0,0,0.05,10.5,0)" xlink:href="#aM"/><use transform="matrix(0.05,0,0,0.05,15.5,0)" xlink:href="#aN"/><use transform="matrix(0.05,0,0,0.05,21.45,0)" xlink:href="#aH"/><use transform="matrix(0.05,0,0,0.05,31.450000000000003,0)" xlink:href="#aG"/><use transform="matrix(0.05,0,0,0.05,41.45,0)" xlink:href="#aQ"/><use transform="matrix(0.05,0,0,0.05,50.45,0)" xlink:href="#ba"/><use transform="matrix(0.05,0,0,0.05,55.45,0)" xlink:href="#aJ"/><use transform="matrix(0.05,0,0,0.05,65.45,0)" xlink:href="#aN"/><use transform="matrix(0.05,0,0,0.05,71.4,0)" xlink:href="#bg"/><use transform="matrix(0.05,0,0,0.05,81.7,0)" xlink:href="#aO"/><use transform="matrix(0.05,0,0,0.05,85.65,0)" xlink:href="#aI"/><use transform="matrix(0.05,0,0,0.05,100.60000000000001,0)" xlink:href="#aJ"/><use transform="matrix(0.05,0,0,0.05,110.60000000000001,0)" xlink:href="#aK"/></g><g id="aj"><use transform="matrix(0.05,0,0,0.05,0,0)" xlink:href="#aS"/><use transform="matrix(0.05,0,0,0.05,10,0)" xlink:href="#aO"/><use transform="matrix(0.05,0,0,0.05,13.949999999999998,0)" xlink:href="#aQ"/><use transform="matrix(0.05,0,0,0.05,22.95,0)" xlink:href="#aM"/><use transform="matrix(0.05,0,0,0.05,27.950000000000003,0)" xlink:href="#bp"/><use transform="matrix(0.05,0,0,0.05,38.45,0)" xlink:href="#aO"/><use transform="matrix(0.05,0,0,0.05,42.400000000000006,0)" xlink:href="#aG"/><use transform="matrix(0.05,0,0,0.05,52.400000000000006,0)" xlink:href="#aM"/><use transform="matrix(0.05,0,0,0.05,57.400000000000006,0)" xlink:href="#bq"/></g><g id="ak"><use transform="matrix(0.05,0,0,0.05,0,0)" xlink:href="#bm"/><use transform="matrix(0.05,0,0,0.05,10.5,0)" xlink:href="#aH"/><use transform="matrix(0.05,0,0,0.05,20.5,0)" xlink:href="#aN"/><use transform="matrix(0.05,0,0,0.05,26.450000000000003,0)" xlink:href="#aN"/><use transform="matrix(0.05,0,0,0.05,32.4,0)" xlink:href="#aO"/><use transform="matrix(0.05,0,0,0.05,36.35,0)" xlink:href="#bo"/><use transform="matrix(0.05,0,0,0.05,45.35,0)" xlink:href="#aH"/><use transform="matrix(0.05,0,0,0.05,55.35,0)" xlink:href="#aV"/><use transform="matrix(0.05,0,0,0.05,59.300000000000004,0)" xlink:href="#bg"/><use transform="matrix(0.05,0,0,0.05,69.60000000000001,0)" xlink:href="#aO"/><use transform="matrix(0.05,0,0,0.05,73.55000000000001,0)" xlink:href="#aI"/><use transform="matrix(0.05,0,0,0.05,88.50000000000001,0)" xlink:href="#aJ"/><use transform="matrix(0.05,0,0,0.05,98.50000000000001,0)" xlink:href="#aK"/></g><g id="al"><use transform="matrix(0.05,0,0,0.05,0,0)" xlink:href="#bd"/><use transform="matrix(0.05,0,0,0.05,12,0)" xlink:href="#aH"/><use transform="matrix(0.05,0,0,0.05,22,0)" xlink:href="#aN"/><use transform="matrix(0.05,0,0,0.05,27.950000000000003,0)" xlink:href="#aM"/><use transform="matrix(0.05,0,0,0.05,32.95,0)" xlink:href="#bg"/><use transform="matrix(0.05,0,0,0.05,43.25000000000001,0)" xlink:href="#aN"/><use transform="matrix(0.05,0,0,0.05,49.20000000000001,0)" xlink:href="#aH"/><use transform="matrix(0.05,0,0,0.05,59.20000000000002,0)" xlink:href="#aG"/><use transform="matrix(0.05,0,0,0.05,69.20000000000002,0)" xlink:href="#aQ"/><use transform="matrix(0.05,0,0,0.05,78.20000000000002,0)" xlink:href="#aO"/><use transform="matrix(0.05,0,0,0.05,82.15000000000002,0)" xlink:href="#aM"/><use transform="matrix(0.05,0,0,0.05,87.15000000000002,0)" xlink:href="#aO"/><use transform="matrix(0.05,0,0,0.05,91.10000000000002,0)" xlink:href="#aT"/><use transform="matrix(0.05,0,0,0.05,101.10000000000002,0)" xlink:href="#aG"/></g><g id="am"><use transform="matrix(0.05,0,0,0.05,0,0)" xlink:href="#aF"/><use transform="matrix(0.05,0,0,0.05,5.95,0)" xlink:href="#aQ"/><use transform="matrix(0.05,0,0,0.05,14.949999999999998,0)" xlink:href="#aM"/><use transform="matrix(0.05,0,0,0.05,19.95,0)" xlink:href="#aH"/><use transform="matrix(0.05,0,0,0.05,29.950000000000003,0)" xlink:href="#aN"/><use transform="matrix(0.05,0,0,0.05,35.9,0)" xlink:href="#aM"/><use transform="matrix(0.05,0,0,0.05,40.9,0)" xlink:href="#bd"/><use transform="matrix(0.05,0,0,0.05,52.900000000000006,0)" xlink:href="#aT"/><use transform="matrix(0.05,0,0,0.05,62.900000000000006,0)" xlink:href="#aO"/><use transform="matrix(0.05,0,0,0.05,66.85,0)" xlink:href="#aG"/><use transform="matrix(0.05,0,0,0.05,76.85,0)" xlink:href="#aM"/><use transform="matrix(0.05,0,0,0.05,81.85,0)" xlink:href="#aK"/></g><g id="an"><use transform="matrix(0.05,0,0,0.05,0,0)" xlink:href="#aF"/><use transform="matrix(0.05,0,0,0.05,5.95,0)" xlink:href="#aJ"/><use transform="matrix(0.05,0,0,0.05,15.949999999999998,0)" xlink:href="#aG"/><use transform="matrix(0.05,0,0,0.05,25.950000000000003,0)" xlink:href="#aW"/><use transform="matrix(0.05,0,0,0.05,35.95,0)" xlink:href="#bd"/><use transform="matrix(0.05,0,0,0.05,47.95,0)" xlink:href="#aT"/><use transform="matrix(0.05,0,0,0.05,57.95,0)" xlink:href="#aO"/><use transform="matrix(0.05,0,0,0.05,61.900000000000006,0)" xlink:href="#aG"/><use transform="matrix(0.05,0,0,0.05,71.9,0)" xlink:href="#aM"/><use transform="matrix(0.05,0,0,0.05,76.9,0)" xlink:href="#aK"/></g><g id="ao"><use transform="matrix(0.05,0,0,0.05,0,0)" xlink:href="#aF"/><use transform="matrix(0.05,0,0,0.05,5.95,0)" xlink:href="#aQ"/><use transform="matrix(0.05,0,0,0.05,14.949999999999998,0)" xlink:href="#aM"/><use transform="matrix(0.05,0,0,0.05,19.95,0)" xlink:href="#aH"/><use transform="matrix(0.05,0,0,0.05,29.950000000000003,0)" xlink:href="#aN"/><use transform="matrix(0.05,0,0,0.05,35.9,0)" xlink:href="#aM"/><use transform="matrix(0.05,0,0,0.05,40.9,0)" xlink:href="#bg"/><use transform="matrix(0.05,0,0,0.05,51.2,0)" xlink:href="#aN"/><use transform="matrix(0.05,0,0,0.05,57.150000000000006,0)" xlink:href="#aH"/><use transform="matrix(0.05,0,0,0.05,67.15,0)" xlink:href="#aU"/><use transform="matrix(0.05,0,0,0.05,76.15,0)" xlink:href="#bt"/><use transform="matrix(0.05,0,0,0.05,85.15,0)" xlink:href="#aK"/></g><g id="ap"><use transform="matrix(0.05,0,0,0.05,0,0)" xlink:href="#aX"/><use transform="matrix(0.05,0,0,0.05,14,0)" xlink:href="#aY"/><use transform="matrix(0.05,0,0,0.05,24,0)" xlink:href="#aM"/><use transform="matrix(0.05,0,0,0.05,29,0)" xlink:href="#aO"/><use transform="matrix(0.05,0,0,0.05,32.95,0)" xlink:href="#aT"/><use transform="matrix(0.05,0,0,0.05,42.95,0)" xlink:href="#aG"/><use transform="matrix(0.05,0,0,0.05,52.95,0)" xlink:href="#aH"/><use transform="matrix(0.05,0,0,0.05,62.95,0)" xlink:href="#aV"/><use transform="matrix(0.05,0,0,0.05,66.9,0)" xlink:href="#aZ"/><use transform="matrix(0.05,0,0,0.05,71.9,0)" xlink:href="#aT"/><use transform="matrix(0.05,0,0,0.05,81.9,0)" xlink:href="#ba"/><use transform="matrix(0.05,0,0,0.05,86.9,0)" xlink:href="#bb"/><use transform="matrix(0.05,0,0,0.05,92.85000000000001,0)" xlink:href="#aO"/><use transform="matrix(0.05,0,0,0.05,96.80000000000001,0)" xlink:href="#aG"/><use transform="matrix(0.05,0,0,0.05,106.80000000000001,0)" xlink:href="#aM"/><use transform="matrix(0.05,0,0,0.05,111.80000000000001,0)" xlink:href="#bc"/></g><g id="aq"><use transform="matrix(0.05,0,0,0.05,0,0)" xlink:href="#aF"/><use transform="matrix(0.05,0,0,0.05,5.95,0)" xlink:href="#bo"/><use transform="matrix(0.05,0,0,0.05,14.949999999999998,0)" xlink:href="#aJ"/><use transform="matrix(0.05,0,0,0.05,24.95,0)" xlink:href="#bi"/><use transform="matrix(0.05,0,0,0.05,34.95,0)" xlink:href="#aO"/><use transform="matrix(0.05,0,0,0.05,38.900000000000006,0)" xlink:href="#aU"/><use transform="matrix(0.05,0,0,0.05,47.900000000000006,0)" xlink:href="#aV"/><use transform="matrix(0.05,0,0,0.05,51.85,0)" xlink:href="#aJ"/><use transform="matrix(0.05,0,0,0.05,61.85,0)" xlink:href="#aK"/></g><g id="ar"><use transform="matrix(0.05,0,0,0.05,0,0)" xlink:href="#aF"/><use transform="matrix(0.05,0,0,0.05,5.95,0)" xlink:href="#bo"/><use transform="matrix(0.05,0,0,0.05,14.949999999999998,0)" xlink:href="#aJ"/><use transform="matrix(0.05,0,0,0.05,24.95,0)" xlink:href="#bi"/><use transform="matrix(0.05,0,0,0.05,34.95,0)" xlink:href="#aO"/><use transform="matrix(0.05,0,0,0.05,38.900000000000006,0)" xlink:href="#aU"/><use transform="matrix(0.05,0,0,0.05,47.900000000000006,0)" xlink:href="#aV"/><use transform="matrix(0.05,0,0,0.05,51.85,0)" xlink:href="#aJ"/><use transform="matrix(0.05,0,0,0.05,61.85,0)" xlink:href="#bk"/><use transform="matrix(0.05,0,0,0.05,74.80000000000001,0)" xlink:href="#bx"/><use transform="matrix(0.05,0,0,0.05,84.80000000000001,0)" xlink:href="#aI"/><use transform="matrix(0.05,0,0,0.05,99.75000000000001,0)" xlink:href="#bA"/><use transform="matrix(0.05,0,0,0.05,109.75,0)" xlink:href="#aJ"/><use transform="matrix(0.05,0,0,0.05,119.75,0)" xlink:href="#aN"/><use transform="matrix(0.05,0,0,0.05,125.7,0)" xlink:href="#aK"/></g><g id="as"><use transform="matrix(0.05,0,0,0.05,0,0)" xlink:href="#aX"/><use transform="matrix(0.05,0,0,0.05,14,0)" xlink:href="#aY"/><use transform="matrix(0.05,0,0,0.05,24,0)" xlink:href="#aM"/><use transform="matrix(0.05,0,0,0.05,29,0)" xlink:href="#aO"/><use transform="matrix(0.05,0,0,0.05,32.95,0)" xlink:href="#aT"/><use transform="matrix(0.05,0,0,0.05,42.95,0)" xlink:href="#aG"/><use transform="matrix(0.05,0,0,0.05,52.95,0)" xlink:href="#aH"/><use transform="matrix(0.05,0,0,0.05,62.95,0)" xlink:href="#aV"/><use transform="matrix(0.05,0,0,0.05,66.9,0)" xlink:href="#aZ"/><use transform="matrix(0.05,0,0,0.05,71.9,0)" xlink:href="#aT"/><use transform="matrix(0.05,0,0,0.05,81.9,0)" xlink:href="#ba"/><use transform="matrix(0.05,0,0,0.05,86.9,0)" xlink:href="#bb"/><use transform="matrix(0.05,0,0,0.05,92.85000000000001,0)" xlink:href="#aV"/><use transform="matrix(0.05,0,0,0.05,96.80000000000001,0)" xlink:href="#aT"/><use transform="matrix(0.05,0,0,0.05,106.80000000000001,0)" xlink:href="#aG"/><use transform="matrix(0.05,0,0,0.05,116.80000000000001,0)" xlink:href="#aP"/><use transform="matrix(0.05,0,0,0.05,126.80000000000001,0)" xlink:href="#bc"/></g><g id="at"><use transform="matrix(0.05,0,0,0.05,0,0)" xlink:href="#aF"/><use transform="matrix(0.05,0,0,0.05,5.95,0)" xlink:href="#bo"/><use transform="matrix(0.05,0,0,0.05,14.949999999999998,0)" xlink:href="#aJ"/><use transform="matrix(0.05,0,0,0.05,24.95,0)" xlink:href="#bi"/><use transform="matrix(0.05,0,0,0.05,34.95,0)" xlink:href="#aO"/><use transform="matrix(0.05,0,0,0.05,38.900000000000006,0)" xlink:href="#aU"/><use transform="matrix(0.05,0,0,0.05,47.900000000000006,0)" xlink:href="#aV"/><use transform="matrix(0.05,0,0,0.05,51.85,0)" xlink:href="#aJ"/><use transform="matrix(0.05,0,0,0.05,61.85,0)" xlink:href="#aR"/><use transform="matrix(0.05,0,0,0.05,74.80000000000001,0)" xlink:href="#aO"/><use transform="matrix(0.05,0,0,0.05,78.75000000000001,0)" xlink:href="#aN"/><use transform="matrix(0.05,0,0,0.05,84.70000000000002,0)" xlink:href="#aJ"/><use transform="matrix(0.05,0,0,0.05,94.70000000000002,0)" xlink:href="#aU"/><use transform="matrix(0.05,0,0,0.05,103.7,0)" xlink:href="#aM"/><use transform="matrix(0.05,0,0,0.05,108.7,0)" xlink:href="#aO"/><use transform="matrix(0.05,0,0,0.05,112.65000000000003,0)" xlink:href="#aT"/><use transform="matrix(0.05,0,0,0.05,122.65000000000003,0)" xlink:href="#aG"/><use transform="matrix(0.05,0,0,0.05,132.65000000000003,0)" xlink:href="#aK"/></g><g id="au"><use transform="matrix(0.05,0,0,0.05,0,0)" xlink:href="#aX"/><use transform="matrix(0.05,0,0,0.05,14,0)" xlink:href="#aY"/><use transform="matrix(0.05,0,0,0.05,24,0)" xlink:href="#aM"/><use transform="matrix(0.05,0,0,0.05,29,0)" xlink:href="#aO"/><use transform="matrix(0.05,0,0,0.05,32.95,0)" xlink:href="#aT"/><use transform="matrix(0.05,0,0,0.05,42.95,0)" xlink:href="#aG"/><use transform="matrix(0.05,0,0,0.05,52.95,0)" xlink:href="#aH"/><use transform="matrix(0.05,0,0,0.05,62.95,0)" xlink:href="#aV"/><use transform="matrix(0.05,0,0,0.05,66.9,0)" xlink:href="#aZ"/><use transform="matrix(0.05,0,0,0.05,71.9,0)" xlink:href="#aT"/><use transform="matrix(0.05,0,0,0.05,81.9,0)" xlink:href="#ba"/><use transform="matrix(0.05,0,0,0.05,86.9,0)" xlink:href="#bb"/><use transform="matrix(0.05,0,0,0.05,92.85000000000001,0)" xlink:href="#aL"/><use transform="matrix(0.05,0,0,0.05,104.85000000000001,0)" xlink:href="#aM"/><use transform="matrix(0.05,0,0,0.05,109.85000000000001,0)" xlink:href="#aN"/><use transform="matrix(0.05,0,0,0.05,115.80000000000001,0)" xlink:href="#aO"/><use transform="matrix(0.05,0,0,0.05,119.75,0)" xlink:href="#aG"/><use transform="matrix(0.05,0,0,0.05,129.75,0)" xlink:href="#aP"/><use transform="matrix(0.05,0,0,0.05,139.75,0)" xlink:href="#bc"/></g></defs></g></svg>